<?xml version="1.0" standalone="no"?>
<!DOCTYPE svg PUBLIC "-//W3C//DTD SVG 20010904//EN"
 "http://www.w3.org/TR/2001/REC-SVG-20010904/DTD/svg10.dtd">
<svg version="1.0" xmlns="http://www.w3.org/2000/svg"
 width="967.000000pt" height="554.000000pt" viewBox="0 0 967.000000 554.000000"
 preserveAspectRatio="xMidYMid meet">

<g transform="translate(0.000000,554.000000) scale(0.100000,-0.100000)"
fill="#000000" stroke="none">
<path d="M85 5535 c-5 -2 -27 -6 -48 -10 -32 -5 -38 -10 -35 -28 4 -26 50 -37
173 -40 77 -2 175 22 175 42 0 4 -16 15 -35 24 -26 12 -61 17 -128 16 -51 0
-96 -2 -102 -4z"/>
<path d="M370 5530 c32 -10 185 -10 225 0 18 5 -26 8 -110 8 -84 0 -130 -3
-115 -8z"/>
<path d="M753 5533 c26 -2 67 -2 90 0 23 2 2 3 -48 3 -49 0 -68 -1 -42 -3z"/>
<path d="M990 5535 c0 -3 12 -17 28 -30 24 -22 36 -24 114 -25 48 0 107 5 130
10 24 6 81 19 128 30 l85 18 -242 1 c-134 1 -243 -1 -243 -4z"/>
<path d="M1455 5514 c-49 -14 -119 -30 -155 -35 -81 -11 -90 -15 -90 -34 0 -8
-7 -15 -15 -15 -10 0 -15 -10 -15 -30 0 -30 0 -30 58 -30 32 0 62 3 66 7 3 4
-6 17 -21 30 l-28 24 35 -7 c19 -4 53 -10 75 -14 l40 -6 -40 -18 -40 -17 25
-14 c34 -19 54 -18 157 6 104 25 108 26 92 45 -7 9 -30 14 -60 14 -27 0 -49 5
-49 10 0 6 -7 10 -15 10 -20 0 -97 31 -91 37 3 3 54 -5 114 -17 l109 -22 51
22 c29 12 52 26 52 29 0 4 -11 17 -25 29 -34 30 -112 28 -230 -4z"/>
<path d="M1710 5524 c39 -17 144 -14 163 5 8 8 -18 11 -93 11 -103 -1 -104 -1
-70 -16z"/>
<path d="M1927 5533 c18 -2 50 -2 70 0 21 2 7 4 -32 4 -38 0 -55 -2 -38 -4z"/>
<path d="M2074 5526 c-3 -8 -1 -24 6 -35 19 -36 108 -28 290 23 l85 25 -188 0
c-153 1 -189 -2 -193 -13z"/>
<path d="M2461 5520 c-40 -11 -87 -27 -104 -35 -16 -8 -49 -15 -72 -15 -26 0
-48 -6 -55 -15 -7 -8 -9 -15 -5 -15 4 0 2 -6 -4 -14 -30 -36 18 -66 104 -66
65 0 80 15 28 30 -69 19 -74 32 -8 23 33 -4 81 -7 108 -6 53 3 64 -11 16 -21
-54 -10 -27 -30 62 -45 80 -13 92 -13 213 9 70 13 121 27 114 31 -35 19 -175
41 -229 36 -33 -3 -59 -2 -59 2 0 4 -34 13 -76 19 -77 12 -131 31 -89 31 11 1
81 -8 155 -19 163 -24 182 -24 221 -4 41 21 33 35 -27 50 -27 7 -62 17 -79 23
l-30 11 35 -5 c19 -2 71 -9 115 -16 78 -11 215 -5 215 10 0 3 63 5 141 3 95
-3 144 -1 152 7 8 8 -92 11 -379 10 -351 0 -396 -2 -463 -19z"/>
<path d="M3365 5530 c-3 -6 6 -15 22 -20 15 -6 46 -18 68 -28 30 -13 65 -17
140 -16 90 1 109 5 190 37 l90 36 -252 1 c-158 0 -254 -4 -258 -10z"/>
<path d="M3940 5533 c-35 -6 -150 -54 -150 -63 0 -4 -24 -11 -52 -14 -44 -6
-50 -10 -37 -19 8 -7 18 -20 22 -30 9 -25 84 -57 135 -57 55 0 54 17 -3 31
-25 6 -45 16 -45 21 0 6 11 7 28 3 22 -6 78 -12 126 -15 6 0 1 -7 -10 -15 -16
-13 -17 -16 -4 -25 8 -5 38 -15 67 -21 46 -11 59 -10 105 8 86 33 73 48 -52
63 -36 5 -95 17 -132 27 -72 19 -106 40 -48 29 207 -40 244 -41 238 -4 -2 14
-19 26 -56 40 -69 26 -61 33 16 14 72 -19 96 -20 125 -4 12 7 53 12 91 13 46
0 71 4 73 13 4 9 -41 12 -204 11 -114 -1 -219 -4 -233 -6z"/>
<path d="M4420 5525 c0 -15 75 -57 123 -69 42 -10 152 12 212 43 30 15 52 31
48 34 -3 4 -91 7 -195 7 -159 0 -188 -2 -188 -15z"/>
<path d="M4905 5528 c-56 -14 -135 -50 -130 -58 6 -10 -20 -20 -50 -20 -33 0
-41 -18 -11 -26 13 -3 27 -12 30 -19 2 -7 29 -22 59 -33 61 -23 204 -41 194
-25 -8 12 -84 33 -124 34 -26 0 -26 1 -6 9 13 5 37 5 59 -2 22 -6 65 -7 99 -3
55 6 58 5 40 -9 -20 -15 -20 -15 -1 -29 26 -19 246 -39 307 -27 26 5 62 15 80
23 l34 13 -50 13 c-61 15 -250 31 -287 24 -15 -3 -45 1 -65 10 -21 8 -74 18
-118 22 -58 6 -74 10 -58 16 12 4 37 4 55 -2 50 -14 328 -24 328 -12 0 22 -49
41 -138 53 -51 7 -89 17 -85 21 5 5 33 4 63 -2 30 -5 94 -13 142 -16 70 -4 93
-2 112 10 20 13 44 15 145 10 105 -5 121 -4 121 9 0 9 -10 18 -22 22 -37 10
-680 4 -723 -6z"/>
<path d="M5702 5528 c11 -32 283 -93 366 -83 67 8 125 52 103 79 -12 14 -44
16 -243 16 -179 0 -229 -3 -226 -12z"/>
<path d="M6310 5534 c-61 -11 -113 -49 -104 -76 4 -14 0 -18 -20 -18 -36 0
-32 -16 6 -24 17 -3 39 -12 47 -20 23 -20 198 -68 235 -64 28 3 26 5 -24 20
-30 9 -66 18 -80 21 -14 2 14 4 62 3 62 -1 88 -5 88 -13 0 -23 60 -43 148 -49
77 -6 90 -5 95 10 5 12 -3 20 -30 31 -45 19 -159 38 -184 30 -10 -3 -27 -1
-38 4 -11 6 -55 17 -98 25 -95 17 -64 20 62 5 51 -6 101 -9 111 -7 30 6 -58
48 -127 60 -90 16 -64 21 31 7 75 -12 83 -11 92 4 7 14 18 16 64 11 58 -7 72
5 32 28 -23 12 -313 22 -368 12z m17 -100 c-3 -3 -12 -4 -19 -1 -8 3 -5 6 6 6
11 1 17 -2 13 -5z"/>
<path d="M6710 5532 c0 -15 93 -51 199 -78 119 -30 181 -27 206 9 22 31 19 57
-6 57 -11 0 -18 4 -15 8 3 5 -83 9 -189 10 -107 1 -195 -2 -195 -6z"/>
<path d="M7168 5533 c12 -2 30 -2 40 0 9 3 -1 5 -23 4 -22 0 -30 -2 -17 -4z"/>
<path d="M7340 5530 c-47 -4 -102 -13 -122 -20 -36 -13 -56 -44 -36 -56 6 -4
-2 -12 -18 -19 l-29 -12 40 -7 c22 -4 54 -14 70 -22 53 -26 227 -65 310 -70
92 -5 68 8 -50 27 -144 22 -147 26 -15 21 93 -4 138 -9 145 -18 16 -21 62 -34
144 -41 88 -7 130 -22 61 -22 -25 0 -99 4 -165 8 -128 10 -175 6 -175 -13 0
-13 72 -45 148 -67 34 -10 65 -10 150 0 96 11 169 24 212 37 26 9 -10 24 -60
25 -38 1 -35 3 25 10 74 9 115 23 115 38 0 8 -64 21 -210 41 -30 5 -93 9 -140
9 -47 1 -141 8 -210 17 -282 37 -282 42 2 18 103 -8 202 -14 220 -12 33 3 33
3 9 16 -21 13 -115 32 -251 51 -84 13 -5 13 105 1 94 -10 188 -4 164 11 -8 5
42 6 111 4 l125 -5 -42 20 c-74 36 -385 50 -633 30z m103 -47 c-7 -2 -21 -2
-30 0 -10 3 -4 5 12 5 17 0 24 -2 18 -5z"/>
<path d="M8035 5530 l-40 -5 55 -22 c30 -11 89 -26 130 -32 41 -7 89 -17 105
-22 89 -29 255 -32 255 -5 0 20 -44 55 -78 62 -44 9 -29 27 17 20 20 -4 50 -2
66 4 30 9 9 9 -190 -4 -55 -4 -56 -3 -10 3 30 4 -14 6 -110 6 -88 0 -178 -2
-200 -5z"/>
<path d="M8640 5529 c0 -5 -13 -9 -29 -9 -16 0 -35 -7 -42 -16 -12 -14 -9 -20
16 -42 17 -14 29 -31 27 -38 -2 -8 12 -15 35 -19 21 -4 64 -15 96 -26 31 -10
67 -19 80 -19 13 0 27 -4 33 -8 10 -10 117 -29 204 -37 71 -6 24 11 -56 21
-69 8 -80 24 -17 24 71 0 35 17 -54 26 -40 3 -73 11 -73 16 0 6 23 7 58 3 31
-3 75 -8 97 -10 l40 -5 -40 20 c-22 11 -61 22 -87 26 -52 7 -56 24 -5 24 25 0
29 3 17 11 -11 8 -3 9 33 6 26 -3 47 -1 47 2 0 10 -101 41 -141 43 -23 1 -17
3 21 7 34 4 -6 7 -102 7 -87 1 -158 -2 -158 -7z m198 -66 c-10 -2 -26 -2 -35
0 -10 3 -2 5 17 5 19 0 27 -2 18 -5z m-20 -50 c-10 -2 -26 -2 -35 0 -10 3 -2
5 17 5 19 0 27 -2 18 -5z m89 -49 c-3 -3 -12 -4 -19 -1 -8 3 -5 6 6 6 11 1 17
-2 13 -5z"/>
<path d="M9058 5532 c-38 -2 -68 -7 -68 -11 0 -11 83 -37 161 -51 35 -6 73
-15 84 -20 55 -23 275 -40 275 -22 0 21 -60 62 -105 73 -84 20 -73 29 31 23
54 -3 119 -1 144 4 32 7 -26 9 -205 8 -137 0 -280 -2 -317 -4z m175 -9 c-18
-2 -48 -2 -65 0 -18 2 -4 4 32 4 36 0 50 -2 33 -4z"/>
<path d="M523 5504 c-106 -15 -191 -38 -219 -58 -18 -14 -18 -15 7 -26 27 -12
242 2 524 35 66 8 126 14 133 14 23 2 12 17 -23 34 -44 21 -281 22 -422 1z"/>
<path d="M1945 5513 c-152 -14 -325 -74 -293 -101 21 -17 363 34 391 58 8 7
-40 52 -52 48 -3 -1 -24 -3 -46 -5z"/>
<path d="M9585 5506 c-63 -14 -65 -34 -5 -63 26 -14 36 -23 25 -23 -18 0 -18
0 1 -15 17 -13 11 -14 -67 -15 -77 0 -88 -2 -108 -23 -21 -23 -21 -57 0 -57 5
0 9 -9 9 -20 0 -11 1 -20 3 -20 1 0 27 -9 57 -20 43 -15 49 -19 27 -20 -15 0
-30 -6 -33 -14 -3 -8 -24 -18 -47 -21 -23 -4 -48 -12 -54 -17 -18 -14 -16 -47
2 -54 14 -6 13 -8 -2 -20 -17 -12 -16 -13 7 -14 14 0 51 -7 82 -15 66 -17 99
-24 150 -32 l36 -5 0 46 c0 28 -4 46 -11 46 -8 0 -7 3 1 9 8 5 12 22 10 42 -3
33 -5 34 -53 40 l-50 6 53 1 52 2 0 74 c0 69 -2 75 -22 79 l-23 4 23 2 c20 1
22 6 22 66 0 73 2 72 -85 51z"/>
<path d="M3047 5494 c-118 -11 -155 -18 -183 -34 -53 -33 -44 -44 51 -60 82
-13 543 39 530 60 -7 11 -130 38 -195 43 -30 2 -122 -2 -203 -9z"/>
<path d="M4215 5479 c-30 -9 -55 -33 -55 -54 0 -7 15 -20 34 -30 32 -17 35
-17 117 3 46 12 103 24 127 28 23 4 45 11 48 15 3 5 -16 18 -41 29 -50 22
-173 26 -230 9z"/>
<path d="M5510 5480 c-150 -8 -172 -14 -168 -43 3 -19 17 -26 93 -45 80 -21
99 -22 170 -14 150 19 305 45 305 52 0 9 -167 47 -230 53 -25 2 -101 1 -170
-3z"/>
<path d="M6632 5469 c-19 -6 -32 -15 -29 -22 6 -18 65 -55 106 -67 70 -19 101
-15 226 35 20 7 -2 15 -155 55 -44 12 -105 11 -148 -1z"/>
<path d="M7843 5458 c-24 -5 -43 -14 -43 -19 0 -18 91 -51 184 -66 58 -10 123
-13 181 -10 85 5 190 29 208 47 5 4 -24 13 -65 19 -40 7 -107 18 -149 26 -84
17 -251 18 -316 3z"/>
<path d="M1045 5453 c-76 -4 -440 -37 -570 -53 -44 -5 -118 -14 -165 -19 -47
-5 -98 -14 -113 -20 -16 -6 -45 -11 -66 -11 -81 0 -131 -12 -131 -31 0 -13 11
-20 38 -26 60 -13 401 -10 447 4 22 7 58 15 80 19 l40 6 -30 13 c-28 12 -25
13 40 9 55 -4 88 1 154 21 46 14 87 23 89 20 3 -3 -9 -10 -26 -16 -72 -25 2
-28 118 -5 28 6 31 5 18 -4 -34 -21 -20 -33 31 -26 91 12 157 54 121 76 -9 6
-7 11 9 19 22 12 20 33 -2 29 -7 -1 -43 -3 -82 -5z"/>
<path d="M9010 5451 c-8 -6 -12 -12 -10 -15 14 -13 200 -66 270 -77 78 -12 81
-12 105 11 16 15 22 27 16 33 -13 13 -210 49 -296 54 -38 2 -77 -1 -85 -6z"/>
<path d="M0 5405 c0 -25 4 -45 9 -45 25 0 171 22 206 32 l39 10 -24 14 c-16 8
-58 13 -112 14 -48 0 -90 5 -93 10 -14 23 -25 7 -25 -35z"/>
<path d="M2075 5443 c-78 -6 -220 -25 -255 -34 -19 -4 -75 -16 -125 -25 -49
-9 -98 -21 -108 -26 -10 -5 -46 -14 -80 -19 -67 -10 -117 -27 -117 -39 0 -4
27 -13 59 -20 105 -22 320 11 306 47 -4 12 1 14 29 9 26 -5 51 0 97 19 59 25
93 29 50 5 -59 -31 11 -35 87 -4 30 12 32 12 22 -5 -12 -24 7 -33 53 -24 74
14 109 50 70 72 -15 8 -16 12 -5 22 27 29 20 31 -83 22z"/>
<path d="M3400 5423 c-52 -6 -160 -19 -240 -28 -80 -9 -154 -20 -165 -25 -11
-5 -65 -16 -120 -25 -224 -37 -226 -37 -212 -51 3 -4 75 -13 159 -21 230 -22
497 -4 485 32 -2 5 -21 13 -43 17 -21 3 -4 4 38 1 74 -5 79 -4 124 26 48 31
67 34 45 7 -7 -8 -10 -20 -6 -27 9 -14 91 -3 122 17 30 19 36 18 28 -5 -4 -14
0 -20 20 -24 35 -6 105 12 105 28 0 15 -43 45 -64 45 -8 0 -16 10 -18 23 -3
21 -8 22 -83 22 -44 0 -123 -5 -175 -12z"/>
<path d="M4425 5404 c-49 -12 -98 -23 -108 -23 -10 -1 -43 -12 -74 -27 -31
-14 -68 -27 -82 -30 -31 -7 -67 -31 -58 -40 3 -4 46 -13 94 -21 91 -15 195
-11 240 10 28 12 29 22 6 37 -15 9 -12 10 16 6 28 -5 38 -1 62 25 l29 31 0
-26 c0 -25 3 -26 50 -26 36 0 52 4 56 15 8 19 24 20 24 1 0 -17 22 -26 65 -26
39 0 65 8 65 21 0 11 -74 49 -96 49 -9 0 -25 11 -36 25 -18 23 -26 25 -91 23
-40 0 -112 -11 -162 -24z"/>
<path d="M5930 5409 c-14 -4 -88 -17 -165 -29 -76 -11 -144 -25 -149 -30 -6
-6 -24 -10 -41 -10 -18 0 -35 -3 -39 -7 -4 -4 -37 -15 -73 -23 -97 -22 -91
-36 19 -44 51 -4 138 -12 193 -18 120 -13 300 -5 340 16 l28 15 -26 6 c-15 4
-27 11 -27 17 0 5 9 6 20 3 32 -10 59 3 53 25 -7 26 9 26 32 0 23 -26 125 -30
125 -5 0 20 7 19 37 -5 17 -13 41 -20 69 -20 59 0 58 23 -1 40 -25 7 -48 17
-51 21 -3 5 -20 9 -39 9 -19 0 -37 4 -40 10 -3 5 -20 16 -38 24 -35 16 -182
19 -227 5z"/>
<path d="M6919 5381 c-59 -23 -129 -78 -129 -100 0 -16 55 -30 165 -42 128
-14 208 -7 203 19 -2 9 -14 19 -28 23 -24 7 -24 7 -2 8 24 1 29 20 10 39 -19
19 4 14 37 -8 36 -24 105 -27 105 -5 0 19 -1 19 51 -5 50 -22 123 -27 117 -7
-3 6 -16 15 -29 19 -13 4 -48 14 -76 23 -29 8 -65 17 -80 19 -16 3 -51 14 -80
25 -74 29 -177 26 -264 -8z"/>
<path d="M8362 5374 c-42 -12 -92 -25 -110 -29 -18 -4 -30 -11 -26 -16 3 -5
-1 -9 -10 -9 -8 0 -27 -6 -43 -14 -15 -8 -39 -19 -53 -24 -27 -11 -26 -11 45
-30 94 -26 561 -39 584 -17 10 11 -31 35 -63 36 -31 2 -31 2 -3 6 34 5 34 16
2 33 -40 22 -23 22 40 0 71 -24 130 -27 121 -5 -4 12 4 11 47 -4 61 -22 127
-33 127 -21 0 4 -15 13 -32 20 -47 17 -197 50 -228 50 -14 0 -30 4 -35 9 -20
19 -133 40 -208 39 -45 -1 -110 -11 -155 -24z"/>
<path d="M9065 5352 c18 -19 80 -36 220 -62 22 -4 -20 -5 -94 -2 -98 4 -132 2
-127 -6 9 -15 188 -72 246 -79 47 -5 121 14 127 33 4 13 -39 34 -75 35 -24 2
-24 2 -4 6 49 10 6 47 -68 58 -25 4 -50 11 -55 15 -6 5 -51 12 -100 15 l-90 7
20 -20z"/>
<path d="M1070 5335 c-58 -14 -140 -55 -140 -71 0 -13 318 25 394 47 33 9 37
13 23 20 -30 18 -207 19 -277 4z"/>
<path d="M2153 5329 c-54 -13 -122 -79 -80 -79 49 1 358 31 409 40 99 17 109
22 68 32 -57 13 -351 18 -397 7z"/>
<path d="M675 5319 c-80 -20 -66 -30 63 -45 35 -4 60 -10 55 -15 -4 -4 -60 -1
-123 8 -142 19 -407 7 -477 -22 -24 -9 -43 -20 -43 -24 0 -17 139 -51 206 -50
131 0 443 52 457 75 4 8 23 14 41 14 25 0 38 7 51 26 9 14 14 29 10 32 -10 11
-198 12 -240 1z"/>
<path d="M3733 5311 c-27 -17 -31 -24 -24 -43 11 -32 49 -34 194 -8 197 34
193 58 -11 67 -116 4 -130 3 -159 -16z"/>
<path d="M4870 5324 c-37 -14 -60 -28 -59 -38 0 -6 14 -22 30 -35 34 -27 53
-27 289 3 165 21 175 23 161 40 -8 9 -53 15 -144 20 -72 3 -161 8 -197 11 -36
2 -72 2 -80 -1z"/>
<path d="M1810 5304 l-35 -17 45 -9 c94 -19 107 -28 30 -21 -143 14 -283 7
-335 -16 -54 -24 -55 -38 -2 -64 33 -17 47 -17 144 -7 115 12 282 48 304 67 8
6 23 12 33 14 28 6 44 35 28 51 -21 21 -170 22 -212 2z"/>
<path d="M6428 5309 c-30 -17 -21 -33 36 -63 49 -26 60 -28 117 -23 67 7 159
35 159 49 0 10 -21 14 -160 33 -133 18 -130 17 -152 4z"/>
<path d="M3406 5302 c-58 -14 -37 -28 61 -41 54 -8 124 -16 156 -18 l57 -5
-11 25 c-6 14 -21 28 -33 31 -36 10 -199 15 -230 8z"/>
<path d="M4520 5289 l-25 -11 25 -8 c72 -22 290 -49 290 -37 0 4 -17 18 -38
32 -32 21 -54 26 -133 30 -59 3 -103 1 -119 -6z"/>
<path d="M1235 5275 c-38 -7 -90 -14 -115 -14 -80 -1 -388 -55 -474 -82 -16
-5 -50 -9 -77 -9 -59 0 -79 -7 -72 -26 3 -8 -1 -14 -8 -14 -7 0 -3 -10 11 -25
20 -21 32 -25 85 -25 34 0 65 3 69 7 4 4 -13 15 -36 25 l-43 19 49 -6 c27 -3
72 -5 100 -5 l51 0 -45 -22 -45 -21 50 -15 c46 -13 58 -13 153 6 57 11 106 23
110 26 16 17 -25 31 -88 32 -38 0 -73 3 -76 7 -4 4 -17 7 -28 7 -25 0 -108 29
-85 30 8 0 66 -7 129 -15 83 -11 123 -12 151 -5 54 15 56 27 9 46 -61 25 -42
28 49 8 75 -16 86 -16 134 -2 35 11 75 14 122 11 52 -4 81 -1 110 11 46 20 40
28 -34 50 -63 18 -63 18 -156 1z"/>
<path d="M6113 5284 c-39 -18 -4 -29 157 -49 l105 -13 -115 6 c-216 13 -375 4
-367 -21 5 -16 59 -32 193 -56 176 -33 316 -24 379 25 20 15 20 15 1 30 -11 8
-16 14 -10 14 5 1 -20 14 -56 31 -55 25 -79 30 -170 34 -58 3 -111 2 -117 -1z"/>
<path d="M0 5249 c0 -34 20 -38 78 -13 43 18 33 28 -35 37 -42 5 -43 4 -43
-24z"/>
<path d="M2465 5269 c-27 -5 -120 -16 -205 -24 -85 -7 -173 -17 -195 -20 -83
-13 -230 -48 -239 -56 -6 -5 -29 -9 -52 -9 -56 0 -73 -7 -67 -29 10 -37 74
-61 164 -61 45 0 79 3 75 8 -4 4 -38 15 -74 24 l-67 17 120 -6 c66 -3 122 -7
124 -9 2 -2 -9 -8 -24 -14 -43 -17 -20 -26 96 -39 90 -11 123 -10 222 4 65 8
127 19 138 24 31 11 -157 39 -316 46 -71 4 -150 10 -175 13 -75 12 -21 20 75
11 231 -20 289 -22 310 -6 20 15 19 16 -8 26 -16 6 -43 11 -60 12 -42 1 -84
13 -72 20 6 3 60 -1 120 -9 90 -12 124 -12 185 -2 41 6 152 13 247 13 94 1
175 5 179 10 15 15 -13 25 -101 37 -49 6 -121 15 -160 20 -85 11 -173 10 -240
-1z"/>
<path d="M7220 5271 c0 -19 39 -30 135 -40 89 -10 89 -10 -31 -5 -237 11 -260
-20 -55 -74 71 -19 123 -26 197 -26 91 -1 104 1 137 24 39 26 47 40 22 40 -7
0 -18 6 -22 13 -17 28 -173 70 -280 75 -74 3 -103 1 -103 -7z"/>
<path d="M4000 5256 c-20 -7 -74 -17 -120 -21 -87 -7 -285 -56 -304 -75 -5 -5
-24 -10 -40 -11 -36 -1 -83 -17 -53 -18 9 -1 17 -6 17 -11 0 -6 24 -22 53 -35
40 -19 69 -25 122 -25 78 0 74 14 -7 25 -81 11 -53 24 40 18 94 -6 104 -9 82
-23 -20 -12 -6 -24 46 -38 62 -18 126 -15 181 9 44 19 46 21 28 32 -11 6 -58
12 -105 15 -47 2 -94 7 -105 12 -11 5 -51 14 -90 19 -62 9 -57 9 35 3 170 -11
205 -9 205 8 0 10 -21 20 -65 32 -79 20 -63 22 45 6 69 -10 86 -9 112 4 22 11
51 14 104 11 127 -7 135 28 12 53 -105 22 -155 25 -193 10z"/>
<path d="M8810 5265 c0 -17 71 -34 166 -40 61 -4 117 -11 125 -16 9 -7 1 -7
-25 -3 -67 12 -329 10 -350 -2 -17 -10 -13 -13 30 -27 138 -43 469 -80 542
-61 34 9 27 58 -8 62 -14 2 -43 11 -65 22 -67 32 -249 70 -336 70 -43 0 -79
-2 -79 -5z"/>
<path d="M3165 5249 c-114 -10 -125 -13 -125 -32 0 -17 80 -41 192 -58 57 -9
102 -10 175 -2 91 10 243 50 243 64 0 6 -341 41 -370 38 -8 -1 -60 -6 -115
-10z"/>
<path d="M5270 5249 c-25 -5 -103 -13 -175 -19 -71 -5 -146 -14 -165 -19 -125
-33 -162 -46 -171 -58 -6 -7 -29 -13 -50 -13 -22 0 -39 -4 -39 -10 0 -5 9 -10
21 -10 11 0 27 -7 35 -15 26 -25 115 -47 214 -51 74 -3 89 -2 70 6 -14 6 -54
14 -90 17 -101 10 -26 19 100 12 58 -3 97 -6 87 -7 -32 -3 -13 -26 32 -39 24
-7 101 -15 171 -19 105 -6 141 -4 204 11 42 10 76 21 76 25 0 12 -184 30 -307
30 -65 1 -147 7 -183 15 -36 8 -92 14 -124 15 -33 0 -57 3 -53 6 3 4 103 1
222 -6 119 -7 219 -10 222 -6 14 13 -16 27 -78 37 -35 6 -89 14 -119 19 -37 6
-18 6 60 2 126 -8 266 -6 290 4 8 3 81 5 163 4 100 -1 147 2 147 10 0 20 -56
31 -260 50 -223 21 -234 22 -300 9z m-377 -116 c-7 -2 -21 -2 -30 0 -10 3 -4
5 12 5 17 0 24 -2 18 -5z"/>
<path d="M4382 5240 c-62 -9 -70 -15 -56 -38 14 -21 99 -48 179 -57 72 -7 187
13 260 46 l50 23 -75 8 c-41 4 -114 12 -161 18 -95 11 -119 11 -197 0z"/>
<path d="M6749 5236 c-14 -7 -50 -16 -80 -20 -97 -13 -188 -53 -173 -77 3 -5
-11 -9 -30 -9 -20 0 -36 -4 -36 -10 0 -5 12 -10 27 -10 14 0 34 -6 42 -13 22
-19 242 -69 283 -65 l33 4 -45 14 c-25 7 -65 17 -90 20 -33 5 -18 7 53 6 64 0
97 -4 97 -12 0 -19 52 -36 147 -47 75 -9 97 -8 118 3 14 7 25 17 25 21 0 16
-72 31 -195 39 -71 4 -138 11 -148 15 -9 4 -41 11 -70 16 -40 6 -29 7 43 3 52
-3 116 -8 143 -11 31 -4 47 -2 47 5 0 11 -29 22 -135 47 l-60 14 75 -7 c95 -8
133 -7 137 5 2 5 32 7 66 5 162 -10 93 31 -97 59 -156 23 -145 22 -177 5z
m-22 -62 c-3 -3 -12 -4 -19 -1 -8 3 -5 6 6 6 11 1 17 -2 13 -5z m-94 -51 c-7
-2 -21 -2 -30 0 -10 3 -4 5 12 5 17 0 24 -2 18 -5z"/>
<path d="M8050 5234 c-14 -3 -32 -8 -40 -11 -8 -4 -64 -13 -125 -20 -163 -19
-182 -23 -201 -45 -15 -16 -16 -21 -4 -28 10 -6 2 -10 -26 -12 -39 -4 -39 -4
-9 -11 17 -4 50 -14 75 -22 76 -23 241 -53 325 -58 95 -7 81 6 -25 22 -41 7
-97 16 -125 21 l-50 9 49 -4 c27 -3 98 -5 157 -5 79 0 108 -3 107 -12 -5 -19
63 -36 172 -44 55 -4 103 -11 106 -15 7 -11 -15 -11 -235 2 -189 11 -231 8
-231 -15 0 -13 16 -21 160 -78 83 -33 100 -33 255 -4 117 22 205 46 205 57 0
10 -28 17 -80 21 -24 2 -11 7 45 15 79 11 150 32 130 39 -35 12 -271 34 -362
34 -94 0 -202 8 -361 26 -92 11 -29 12 177 3 118 -5 216 -7 219 -4 11 11 -62
27 -182 41 -71 8 -132 17 -135 20 -3 4 28 3 69 -2 97 -11 279 -11 305 0 11 5
80 8 153 6 72 -1 132 1 132 4 0 3 -24 12 -52 21 -80 24 -532 61 -598 49z
m-157 -121 c-7 -2 -19 -2 -25 0 -7 3 -2 5 12 5 14 0 19 -2 13 -5z"/>
<path d="M0 5181 l0 -30 83 5 c45 3 86 9 90 13 5 5 -20 13 -55 20 -35 6 -75
14 -90 17 -26 5 -28 3 -28 -25z"/>
<path d="M1160 5180 c-54 -8 -120 -36 -120 -50 0 -6 7 -13 16 -17 17 -6 379
33 396 43 7 5 4 12 -7 21 -20 14 -201 16 -285 3z"/>
<path d="M2699 5180 c-165 -6 -201 -10 -228 -26 -17 -10 -31 -21 -31 -25 0 -3
34 -12 75 -19 64 -11 114 -10 323 4 340 24 369 30 227 54 -101 17 -163 19
-366 12z"/>
<path d="M4140 5170 c-81 -8 -107 -16 -114 -36 -13 -34 91 -54 179 -35 22 5
81 15 130 22 l90 12 -70 23 c-73 24 -105 26 -215 14z"/>
<path d="M5568 5157 c-64 -7 -120 -15 -124 -20 -15 -14 14 -28 87 -44 87 -18
266 -13 454 11 66 8 127 16 135 17 8 1 -32 10 -90 20 -141 24 -320 30 -462 16z"/>
<path d="M7012 5149 c-51 -12 -51 -27 0 -52 73 -36 175 -33 331 10 28 8 17 12
-74 27 -122 22 -208 26 -257 15z"/>
<path d="M85 5141 l-80 -6 -3 -37 -3 -37 62 19 c70 22 90 19 38 -5 -33 -15
-32 -16 51 -11 47 3 99 8 115 11 29 5 29 5 5 -5 -23 -10 -23 -12 -7 -21 19
-11 164 14 181 31 12 12 -11 40 -33 41 -10 0 -11 2 -3 6 54 22 -109 29 -323
14z"/>
<path d="M1290 5120 c-80 -10 -185 -28 -235 -39 -49 -12 -123 -28 -164 -36
-85 -16 -136 -35 -124 -45 4 -4 32 -15 62 -25 73 -24 207 -15 322 22 46 14 78
28 72 30 -29 10 -10 23 25 17 27 -4 56 2 106 21 67 25 107 28 50 3 l-29 -12
44 -4 c23 -2 57 2 74 7 43 16 62 14 48 -2 -25 -31 25 -36 106 -10 58 18 62 30
19 51 -17 9 -25 19 -22 28 8 20 -166 17 -354 -6z"/>
<path d="M8448 5133 c-21 -2 -38 -8 -38 -13 0 -27 183 -60 337 -60 94 0 303
27 318 41 5 6 5 9 -1 9 -5 0 -64 7 -129 15 -109 14 -389 18 -487 8z"/>
<path d="M3080 5119 c-41 -4 -149 -14 -240 -23 -191 -18 -295 -32 -330 -45
-14 -5 -62 -12 -106 -15 -84 -6 -144 -21 -144 -36 0 -10 27 -14 264 -40 167
-18 188 -18 314 -4 75 8 140 18 146 23 6 5 22 11 35 13 38 5 37 26 -1 31 -18
2 1 5 42 5 62 2 82 6 112 27 45 31 63 33 48 6 -5 -11 -10 -22 -10 -25 0 -14
109 -4 149 14 38 18 42 18 37 3 -4 -9 -1 -20 6 -25 22 -13 87 -9 120 8 l31 16
-29 19 c-16 10 -41 19 -56 19 -17 0 -31 8 -38 20 -10 19 -20 20 -143 18 -73 0
-166 -4 -207 -9z"/>
<path d="M4475 5120 c-123 -11 -299 -44 -361 -68 -28 -10 -66 -22 -85 -26 -19
-4 -43 -13 -54 -22 -25 -18 -11 -29 49 -38 22 -4 70 -14 106 -23 55 -13 74
-14 130 -3 55 11 123 33 140 48 3 2 -4 10 -14 18 -18 13 -17 14 21 14 32 0 44
5 57 25 9 14 21 25 26 25 6 0 10 -11 10 -25 0 -23 4 -25 41 -25 25 0 55 9 76
21 l34 21 6 -21 c3 -14 16 -23 41 -27 38 -7 104 5 109 21 4 12 -73 45 -105 45
-13 0 -35 9 -50 20 -35 26 -67 29 -177 20z m-122 -97 c-7 -2 -19 -2 -25 0 -7
3 -2 5 12 5 14 0 19 -2 13 -5z"/>
<path d="M5985 5087 c-119 -11 -211 -24 -227 -33 -14 -8 -42 -14 -61 -14 -20
0 -39 -4 -42 -10 -3 -5 -25 -10 -48 -11 -51 -1 -119 -20 -124 -35 -3 -10 80
-21 420 -56 135 -14 283 0 322 30 28 22 23 32 -17 32 -17 0 -27 4 -23 10 3 6
29 10 56 10 48 0 49 1 43 25 -3 14 -2 25 3 25 5 0 19 -11 31 -25 19 -22 30
-25 82 -25 45 0 62 4 66 15 7 16 34 21 34 5 0 -26 139 -39 147 -14 4 12 -113
54 -151 54 -12 0 -38 8 -57 18 -47 23 -198 23 -454 -1z"/>
<path d="M7309 5077 c-61 -15 -103 -30 -119 -45 -13 -12 -32 -24 -42 -28 -25
-8 -23 -33 5 -39 89 -21 286 -55 322 -55 17 0 47 5 68 11 31 8 38 14 35 32 -2
15 -12 24 -33 28 l-30 6 28 8 c27 7 27 8 11 26 -26 29 -9 34 26 9 44 -32 119
-39 137 -14 11 16 17 17 33 6 36 -22 142 -42 157 -30 9 7 10 15 4 21 -11 11
-104 35 -181 47 -30 5 -73 16 -95 24 -60 23 -210 19 -326 -7z"/>
<path d="M9005 5064 c-137 -22 -167 -30 -217 -55 -9 -5 -35 -12 -58 -15 -38
-6 -58 -19 -47 -30 11 -11 198 -34 404 -50 200 -15 315 -14 358 2 26 10 -20
45 -67 52 l-43 7 40 5 40 5 -35 22 c-44 28 -22 29 48 3 64 -25 147 -28 138 -5
-7 18 -11 19 52 -5 51 -20 52 -20 52 -1 0 23 -8 26 -115 42 -44 6 -98 18 -120
27 -67 25 -255 23 -430 -4z m308 -81 c-7 -2 -19 -2 -25 0 -7 3 -2 5 12 5 14 0
19 -2 13 -5z"/>
<path d="M385 5041 c-64 -16 -202 -90 -190 -102 13 -14 503 68 543 90 20 11
-120 31 -211 30 -40 -1 -103 -9 -142 -18z"/>
<path d="M1666 5032 c-47 -14 -66 -25 -94 -60 l-36 -44 69 4 c99 6 406 45 494
63 40 8 75 15 77 15 2 0 4 4 4 8 0 11 -242 32 -360 31 -56 0 -119 -7 -154 -17z"/>
<path d="M18 5034 c-13 -4 -18 -16 -18 -39 0 -31 4 -35 38 -44 72 -21 108 -14
152 26 24 21 37 40 32 45 -10 10 -178 20 -204 12z"/>
<path d="M3556 5025 c-55 -19 -61 -28 -50 -72 l9 -38 50 3 c124 8 366 75 344
96 -8 8 -184 26 -249 26 -36 -1 -82 -7 -104 -15z"/>
<path d="M1277 5013 c-27 -10 -48 -22 -47 -28 2 -12 132 -44 212 -52 l57 -5
18 36 c12 27 14 39 6 47 -7 7 -54 13 -105 16 -72 3 -104 -1 -141 -14z"/>
<path d="M4828 5015 c-16 -9 -28 -18 -28 -22 0 -15 54 -75 75 -83 23 -9 224
15 380 45 114 21 125 24 125 33 0 17 -135 32 -327 38 -169 4 -202 3 -225 -11z"/>
<path d="M3179 5010 c-26 -4 -57 -14 -70 -21 -24 -13 -24 -13 11 -20 19 -4 91
-17 160 -29 69 -11 134 -23 145 -25 35 -7 47 7 34 43 -12 35 -17 38 -114 52
-79 11 -101 11 -166 0z"/>
<path d="M6698 5009 c-10 -5 -18 -15 -18 -22 1 -14 115 -83 154 -93 48 -12
246 49 246 76 0 13 -24 18 -155 35 -139 17 -203 18 -227 4z"/>
<path d="M4454 4986 c-10 -8 -17 -16 -14 -18 18 -15 303 -61 349 -56 l33 3
-42 34 c-52 42 -89 50 -211 51 -67 0 -101 -4 -115 -14z"/>
<path d="M625 4980 c-27 -5 -70 -16 -94 -25 -24 -8 -64 -15 -90 -15 -71 0
-210 -19 -261 -35 -25 -8 -70 -17 -100 -20 -30 -3 -61 -9 -68 -14 -9 -6 -12
-34 -10 -105 l3 -97 100 51 c55 28 104 55 109 60 5 5 0 24 -13 45 -25 44 -26
45 -3 45 9 0 35 -14 55 -31 36 -30 42 -31 95 -25 78 9 128 24 147 43 13 12 21
13 40 5 32 -15 22 -42 -15 -42 -74 0 -249 -50 -360 -103 -128 -62 -160 -86
-160 -123 0 -20 4 -24 23 -20 12 3 62 14 112 25 50 11 142 32 205 46 63 14
146 32 184 41 40 9 72 12 77 7 6 -6 -30 -18 -88 -32 -176 -41 -297 -69 -368
-85 -38 -9 -87 -21 -107 -27 l-38 -10 0 -58 0 -59 39 -15 c50 -21 80 -13 237
64 67 32 125 59 129 59 14 0 -38 -36 -107 -74 -38 -21 -68 -40 -68 -43 0 -3
33 -3 73 0 55 3 91 13 151 41 96 45 122 43 37 -3 -65 -34 -84 -57 -60 -72 31
-20 159 19 159 49 0 9 5 34 10 54 11 40 39 52 74 33 14 -7 20 -7 23 3 3 6 18
12 33 12 45 0 71 59 28 61 -22 0 -22 1 -4 12 39 26 91 69 100 84 8 14 1 15
-50 10 -33 -3 -70 -9 -84 -13 l-25 -7 27 28 c23 25 36 29 115 36 48 4 113 13
143 19 67 14 432 129 444 140 11 11 -10 17 -159 43 -129 22 -131 22 -245 5
-114 -17 -158 -33 -227 -85 -26 -19 -33 -31 -33 -57 0 -50 -23 -64 -49 -30
-12 15 -21 33 -21 40 0 9 -12 14 -34 14 -58 0 -49 17 11 24 51 6 153 52 167
75 7 11 -78 50 -122 55 -20 3 -59 1 -87 -4z"/>
<path d="M6325 4980 c-4 -6 -3 -15 1 -19 12 -11 106 -28 224 -42 52 -6 111
-15 130 -21 20 -5 49 -8 65 -6 27 4 22 8 -58 47 -87 43 -88 44 -221 49 -99 3
-135 2 -141 -8z"/>
<path d="M2055 4964 c-44 -8 -95 -19 -112 -25 -18 -6 -36 -8 -41 -5 -13 8
-220 -14 -292 -30 -36 -9 -90 -19 -120 -24 -71 -11 -329 -96 -344 -113 -6 -7
-48 -19 -93 -25 -107 -14 -145 -33 -141 -70 2 -21 -2 -28 -18 -30 -12 -2 -29
-11 -38 -21 -17 -18 -34 -94 -28 -122 4 -20 44 -29 131 -29 78 0 115 16 119
50 2 21 -7 31 -53 58 -92 55 -61 66 60 21 59 -22 99 -23 177 -5 84 20 79 6 -9
-26 -68 -25 -143 -77 -143 -99 0 -10 77 -37 160 -55 63 -15 87 -16 150 -6 114
16 364 89 398 116 17 12 3 24 -83 69 -59 31 -63 31 -197 32 -75 0 -131 3 -125
7 18 11 -1 23 -68 42 -105 31 -176 59 -168 67 4 4 64 -6 133 -22 258 -61 370
-73 433 -44 45 20 101 71 94 87 -2 7 -49 28 -103 47 -169 58 -143 71 41 21
117 -32 177 -36 290 -20 95 14 105 18 98 37 -5 13 -1 15 23 9 41 -11 327 -19
369 -12 40 8 75 50 57 68 -12 12 -375 67 -437 67 -22 -1 -76 -7 -120 -15z"/>
<path d="M7630 4972 c0 -22 45 -35 179 -53 75 -11 161 -23 191 -28 30 -5 73
-10 95 -10 l40 0 -50 20 c-156 62 -198 71 -327 77 -89 3 -128 1 -128 -6z"/>
<path d="M3845 4945 c-38 -13 -83 -24 -99 -25 -42 0 -189 -31 -201 -41 -5 -5
-20 -9 -32 -9 -39 0 -214 -92 -224 -117 -7 -19 -16 -23 -54 -23 -89 0 -150
-47 -90 -70 30 -11 31 -17 5 -38 -20 -17 -20 -18 25 -82 24 -35 54 -68 66 -72
31 -12 149 -12 160 -1 22 22 -9 60 -75 92 -106 51 -94 70 20 30 58 -20 134
-22 177 -4 30 13 17 -9 -22 -36 -45 -32 -60 -73 -36 -99 20 -22 127 -62 169
-63 32 0 132 53 183 98 33 28 28 42 -31 90 -35 28 -43 30 -122 30 -59 0 -84 4
-84 12 0 17 -19 25 -132 63 -107 35 -140 57 -67 45 24 -4 98 -23 163 -41 145
-41 209 -44 230 -11 8 12 16 36 18 52 3 29 -1 32 -86 73 -49 23 -86 45 -83 49
4 3 54 -11 113 -32 l106 -38 55 17 c47 15 53 20 47 38 -5 18 -3 20 12 12 11
-5 62 -9 114 -9 l95 0 3 32 c2 23 -2 34 -16 42 -15 8 -229 63 -235 60 -1 0
-33 -11 -72 -24z"/>
<path d="M9512 4958 c6 -18 65 -37 116 -37 38 -1 42 1 42 24 0 25 -1 25 -81
25 -60 0 -80 -3 -77 -12z"/>
<path d="M2859 4936 c-123 -13 -163 -28 -178 -69 -5 -12 -7 -25 -5 -28 2 -3
45 -30 96 -60 l93 -54 105 1 c84 1 120 6 180 26 83 28 294 127 287 135 -18 17
-340 64 -422 62 -22 -1 -92 -7 -156 -13z"/>
<path d="M5320 4938 c-25 -5 -49 -14 -54 -19 -6 -5 -33 -9 -60 -9 -80 -1 -260
-28 -264 -39 -2 -6 -14 -11 -27 -11 -36 0 -70 -16 -131 -61 -45 -33 -53 -43
-43 -55 6 -8 10 -14 8 -15 -2 0 -23 -2 -47 -4 -46 -3 -96 -30 -87 -46 4 -5 25
-19 48 -31 23 -12 36 -23 30 -25 -7 -3 -13 -10 -13 -16 1 -13 112 -97 128 -97
6 0 15 -8 21 -17 9 -17 11 -17 24 2 13 16 19 17 40 8 14 -7 28 -21 32 -32 5
-16 18 -21 68 -26 35 -4 74 -5 87 -3 70 10 -2 65 -133 101 -95 27 -102 30 -93
45 4 6 24 4 53 -5 53 -17 217 -23 273 -10 l35 8 -34 -30 c-32 -28 -33 -31 -21
-61 7 -17 26 -38 41 -46 38 -19 318 -74 378 -74 49 0 172 48 231 90 33 23 33
24 13 40 -11 9 -81 34 -154 55 -127 36 -142 39 -279 39 -108 1 -148 4 -155 14
-6 8 -67 25 -135 38 -69 13 -132 27 -140 30 -28 11 22 22 60 13 77 -17 387
-59 437 -59 48 0 53 2 53 23 0 12 -8 36 -19 53 -20 32 -24 34 -296 95 -90 20
-146 38 -120 39 11 0 262 -44 345 -61 65 -13 173 -6 221 14 l34 15 -25 10
c-21 9 -22 11 -5 11 11 0 63 -4 115 -10 52 -5 139 -7 194 -3 l98 6 -33 34
c-30 29 -44 35 -130 48 -254 41 -478 54 -569 34z"/>
<path d="M4300 4928 c-69 -13 -80 -22 -80 -67 1 -34 5 -39 83 -91 l82 -55 85
1 c66 1 96 6 134 23 48 23 192 117 202 133 6 9 -1 11 -201 43 -170 27 -217 29
-305 13z"/>
<path d="M7092 4922 c-11 -11 -49 -24 -97 -32 -59 -10 -79 -18 -82 -31 -3 -10
-15 -19 -26 -21 -14 -2 -26 -16 -36 -41 -13 -36 -13 -39 9 -62 l23 -25 -27 0
c-29 0 -66 -16 -66 -28 0 -10 85 -52 105 -52 8 0 24 -11 37 -25 25 -26 225
-124 320 -156 33 -11 84 -19 120 -19 l63 1 -23 18 c-26 23 -155 73 -232 91
-30 7 -68 19 -85 26 -26 12 -27 13 -7 14 12 0 69 -10 127 -21 88 -18 110 -20
129 -9 28 14 46 7 46 -19 0 -20 39 -58 90 -89 43 -26 269 -85 307 -80 25 3 28
7 31 44 4 61 -16 78 -153 127 -121 44 -209 61 -255 48 -16 -5 -35 -1 -55 11
-17 9 -62 24 -100 33 -93 21 -237 56 -254 61 -8 3 -11 7 -8 10 6 6 93 -8 315
-53 68 -13 137 -23 154 -21 l31 3 -62 49 c-63 49 -72 53 -316 122 -106 30 -41
26 93 -5 139 -33 169 -36 192 -21 13 9 11 14 -10 32 l-25 21 35 -7 c73 -14
148 -18 164 -9 29 16 -67 71 -155 88 -253 51 -290 54 -317 27z"/>
<path d="M0 4911 c0 -17 4 -18 35 -9 40 13 37 28 -6 28 -22 0 -29 -5 -29 -19z"/>
<path d="M6170 4913 c-47 -8 -88 -18 -93 -22 -4 -4 8 -21 25 -39 26 -24 65
-41 178 -77 237 -75 247 -77 343 -73 99 5 131 20 159 79 33 70 33 77 -9 88
-21 6 -96 18 -168 27 -71 8 -159 20 -195 24 -88 12 -139 11 -240 -7z"/>
<path d="M8613 4923 c-12 -2 -27 -11 -33 -19 -7 -8 -30 -14 -51 -14 -70 0
-190 -22 -206 -38 -9 -9 -23 -17 -31 -18 -26 -4 -31 -18 -22 -58 9 -41 23 -56
53 -56 9 0 17 -4 17 -10 0 -5 -12 -10 -27 -10 -28 0 -62 -15 -53 -23 17 -16
95 -48 130 -53 23 -4 54 -17 68 -29 26 -21 292 -115 326 -115 10 0 14 -5 10
-11 -5 -9 6 -10 39 -5 36 6 47 4 54 -9 5 -9 27 -20 48 -25 45 -10 222 -16 230
-8 9 9 -140 58 -223 74 -42 8 -81 19 -86 24 -6 6 -6 10 -1 10 6 1 46 2 90 4
44 2 92 6 108 11 23 6 27 4 27 -12 0 -28 25 -48 109 -83 81 -35 165 -54 354
-79 l127 -18 0 77 0 77 -52 11 c-206 45 -435 69 -495 53 -33 -9 -46 -8 -69 4
-16 8 -50 18 -77 21 -47 7 -66 17 -48 29 6 3 61 1 123 -5 62 -6 138 -10 168
-8 l55 3 -65 34 c-36 19 -103 46 -149 61 -47 15 -86 31 -88 36 -2 5 38 9 92 9
59 0 98 4 106 12 9 9 3 13 -25 18 -51 10 -60 29 -10 21 22 -3 111 -8 199 -11
144 -6 158 -5 141 9 -10 8 -53 27 -95 41 -73 25 -104 30 -516 75 -82 9 -213
11 -252 3z m68 -127 c46 -8 112 -18 147 -22 43 -4 62 -11 62 -20 0 -10 -8 -13
-22 -10 -13 3 -66 12 -118 21 -155 27 -200 36 -200 41 0 8 47 4 131 -10z m-36
-126 c94 -11 178 -20 188 -20 9 0 17 -7 17 -15 0 -17 3 -17 -170 10 -299 46
-315 57 -35 25z m101 -111 c63 -11 95 -29 53 -29 -38 0 -143 21 -153 31 -14
12 28 11 100 -2z"/>
<path d="M7591 4907 c-25 -7 -46 -18 -49 -25 -2 -7 0 -12 5 -12 5 0 30 -13 55
-30 69 -46 366 -141 458 -147 79 -5 126 6 136 32 4 8 3 40 0 69 -6 44 -11 55
-29 60 -27 8 -411 57 -482 62 -27 1 -70 -3 -94 -9z"/>
<path d="M9456 4889 c-22 -5 -42 -12 -44 -14 -9 -8 220 -95 250 -95 5 0 8 27
8 60 l0 60 -87 -1 c-49 -1 -106 -5 -127 -10z"/>
<path d="M2311 4809 c-152 -11 -313 -36 -356 -53 -53 -22 -145 -95 -145 -114
0 -11 22 -31 55 -51 55 -33 57 -34 138 -27 45 4 118 13 162 21 44 9 130 24
190 35 218 38 331 60 385 76 l55 16 -23 18 c-12 10 -57 33 -99 51 -90 37 -167
43 -362 28z"/>
<path d="M3965 4786 c-79 -20 -110 -41 -134 -90 -11 -25 -21 -52 -21 -60 0
-25 70 -86 99 -86 28 0 105 23 216 65 39 15 99 36 135 48 39 13 65 28 65 36 0
8 -31 34 -70 58 -68 42 -71 43 -155 42 -47 0 -107 -6 -135 -13z"/>
<path d="M5770 4780 c-74 -9 -179 -35 -191 -47 -12 -12 7 -84 28 -103 30 -28
253 -100 311 -100 50 0 402 90 505 129 54 21 39 28 -203 102 -63 19 -101 24
-230 25 -85 1 -184 -1 -220 -6z"/>
<path d="M7500 4773 c-14 -2 -36 -13 -50 -24 l-25 -20 60 -54 c64 -58 100 -79
207 -120 118 -46 122 -45 208 29 41 35 75 70 75 77 0 14 -68 40 -232 89 -97
28 -167 35 -243 23z"/>
<path d="M9370 4764 c-71 -7 -181 -35 -177 -47 4 -14 147 -93 209 -116 29 -11
91 -27 138 -36 46 -10 95 -21 107 -26 l23 -9 0 109 c0 104 -1 109 -22 115 -29
9 -218 15 -278 10z"/>
<path d="M2940 4679 c-19 -5 -56 -6 -81 -3 -28 3 -73 -1 -110 -10 -75 -18
-604 -118 -698 -132 -24 -4 -52 -15 -61 -24 -11 -11 -42 -20 -86 -24 -43 -4
-84 -16 -109 -30 -22 -13 -62 -26 -90 -30 -143 -20 -365 -92 -365 -118 0 -15
42 -27 164 -48 107 -19 120 -19 136 -5 9 8 30 15 47 15 33 0 87 -36 78 -51 -4
-5 53 -9 139 -9 l146 0 6 25 c9 37 66 45 106 15 29 -21 34 -22 84 -11 30 7 60
19 68 27 8 8 20 14 26 14 23 0 110 43 110 54 0 15 -51 40 -100 51 -40 9 -84
35 -59 35 9 0 51 -9 94 -20 148 -38 186 -28 302 81 28 27 54 49 57 49 15 0 3
-23 -34 -65 -56 -64 -53 -75 18 -75 78 0 124 15 172 55 62 52 78 47 35 -9 -14
-18 -25 -37 -25 -43 0 -15 46 -33 84 -33 39 0 156 71 156 95 0 9 -11 38 -25
65 -21 41 -30 50 -51 50 -23 0 -25 3 -19 23 18 58 18 70 0 84 -21 15 -62 15
-115 2z"/>
<path d="M4455 4666 c-19 -8 -38 -10 -53 -5 -23 9 -104 -14 -267 -76 -38 -14
-94 -35 -124 -45 -59 -22 -83 -38 -76 -51 3 -4 -10 -11 -30 -15 -20 -3 -44
-17 -55 -32 -11 -14 -44 -35 -74 -47 -68 -27 -113 -60 -121 -86 -9 -28 -1 -35
75 -58 57 -18 66 -19 76 -6 6 8 25 15 42 15 25 0 35 -6 47 -30 15 -29 18 -30
86 -30 93 0 200 27 207 52 2 10 10 18 17 18 19 0 45 28 45 49 0 12 -18 26 -55
42 -30 13 -55 27 -55 31 0 10 -4 10 54 -7 27 -8 67 -15 88 -15 35 0 40 3 54
38 9 20 25 55 35 77 l20 40 -5 -58 c-7 -83 -4 -87 63 -87 65 0 92 15 111 60 7
16 19 30 27 30 12 0 14 -8 9 -39 -7 -44 3 -56 61 -76 l37 -13 34 69 c19 38 33
71 31 72 -2 1 -23 19 -47 40 -28 25 -52 37 -72 37 -27 0 -30 3 -30 31 0 43
-47 89 -92 89 -18 -1 -46 -7 -63 -14z"/>
<path d="M6640 4650 c-8 -6 -38 -7 -66 -4 -43 5 -73 -1 -194 -40 -78 -26 -179
-55 -224 -67 -120 -30 -147 -41 -136 -54 13 -16 2 -25 -31 -25 -44 0 -79 -17
-79 -39 0 -16 -9 -21 -47 -26 -88 -13 -173 -60 -173 -96 0 -23 33 -32 190 -57
194 -31 208 -33 215 -22 11 19 77 11 101 -11 20 -19 41 -23 159 -30 l136 -9
25 30 c29 34 76 41 104 15 13 -12 26 -13 56 -7 33 7 38 12 36 30 -2 17 2 22
17 22 12 0 21 7 21 15 0 24 -47 47 -134 67 -177 41 -173 49 11 21 144 -21 150
-17 106 69 -18 34 -30 64 -28 67 8 7 45 -30 76 -76 19 -27 41 -46 65 -53 36
-12 138 -10 151 3 4 4 -1 22 -10 41 -25 53 -7 52 43 -2 36 -39 57 -53 103 -66
78 -23 101 -19 105 17 2 16 -2 35 -9 44 -23 27 -247 133 -281 133 -24 0 -42 9
-67 35 -66 68 -192 107 -241 75z"/>
<path d="M8146 4642 c-4 -7 -23 -9 -50 -6 -41 6 -46 4 -112 -53 -97 -84 -103
-92 -79 -109 18 -14 18 -14 -1 -29 -18 -14 -18 -16 -1 -26 21 -12 22 -35 2
-43 -24 -9 -18 -55 13 -85 44 -45 282 -103 329 -82 37 17 81 13 103 -9 11 -11
20 -24 20 -30 0 -5 14 -10 31 -10 l31 0 -17 26 c-20 31 -10 65 31 97 14 10 23
21 21 23 -2 2 -37 12 -79 23 -130 32 -145 54 -18 26 122 -27 124 -23 40 55
-41 38 -70 69 -65 69 6 0 42 -22 80 -49 109 -78 170 -97 205 -65 20 18 20 19
-7 47 -29 31 -17 37 23 12 24 -16 26 -16 49 6 14 13 25 27 25 30 0 11 -175 70
-207 70 -16 0 -44 9 -63 20 -102 60 -182 92 -238 97 -38 4 -62 2 -66 -5z"/>
<path d="M899 4407 c25 -26 44 -37 80 -42 49 -7 86 -26 111 -57 15 -19 18 -19
82 -3 76 19 135 52 121 66 -5 5 -45 16 -89 24 -43 8 -97 19 -119 24 -22 6 -80
13 -130 17 l-90 7 34 -36z"/>
<path d="M3198 4416 c-36 -13 -106 -52 -141 -78 -19 -14 -41 -88 -27 -88 4 0
11 -12 14 -26 l7 -26 144 4 143 3 23 29 c19 25 27 28 61 23 48 -6 117 16 152
48 50 46 39 55 -119 94 -110 27 -211 34 -257 17z"/>
<path d="M4974 4365 c15 -32 28 -46 47 -50 36 -8 101 -77 102 -109 2 -23 6
-26 38 -26 28 0 45 8 73 35 43 40 49 42 84 16 27 -19 28 -18 127 11 134 40
172 75 103 97 -79 25 -424 71 -534 71 l-61 0 21 -45z"/>
<path d="M7306 4385 c-18 -19 -21 -48 -6 -75 16 -31 102 -84 138 -87 37 -2 62
-18 62 -39 0 -11 26 -14 128 -14 135 0 172 5 172 24 0 6 14 19 30 28 36 20 38
47 8 75 -35 30 -35 31 -194 62 -199 39 -315 48 -338 26z"/>
<path d="M9001 4381 c-13 -8 -12 -15 5 -46 23 -44 15 -39 229 -138 197 -92
250 -102 365 -70 l65 18 3 92 3 92 -33 5 c-18 3 -64 8 -103 11 -38 4 -113 12
-165 20 -126 18 -351 28 -369 16z"/>
<path d="M175 4371 c-33 -4 -85 -16 -115 -27 l-55 -19 0 -49 0 -48 79 -29 c82
-30 143 -36 175 -19 18 9 131 142 131 153 0 13 -57 35 -105 40 -27 2 -77 1
-110 -2z"/>
<path d="M515 4350 c-41 -18 -195 -154 -195 -171 0 -6 27 -9 62 -7 60 3 62 4
70 35 5 19 23 44 44 60 65 51 72 58 79 81 8 27 -5 28 -60 2z"/>
<path d="M8915 4360 c-4 -7 0 -19 9 -28 21 -21 27 -12 12 17 -9 17 -15 20 -21
11z"/>
<path d="M2695 4353 c-100 -6 -134 -14 -179 -44 -51 -34 -63 -65 -21 -55 14 3
36 9 50 12 19 5 32 -1 54 -24 36 -36 63 -42 204 -49 102 -5 107 -4 107 15 0
11 11 29 25 40 28 22 33 53 11 71 -16 14 -141 41 -176 39 -14 -1 -47 -3 -75
-5z"/>
<path d="M4330 4312 c-55 -55 -41 -72 80 -97 47 -9 93 -21 102 -26 29 -15 35
-11 43 28 6 34 31 62 78 89 19 11 19 11 1 19 -11 4 -76 10 -146 13 l-127 4
-31 -30z"/>
<path d="M6853 4320 c-23 -9 -31 -43 -15 -66 20 -31 82 -42 150 -28 26 5 40 1
73 -21 37 -26 48 -28 165 -33 101 -4 128 -2 135 9 14 22 12 24 -53 63 -86 52
-224 86 -343 85 -49 0 -100 -4 -112 -9z"/>
<path d="M8935 4267 c3 -7 25 -24 50 -39 26 -16 47 -37 50 -51 6 -20 16 -27
63 -36 122 -25 263 -39 249 -25 -10 11 -392 164 -407 164 -5 0 -7 -6 -5 -13z"/>
<path d="M1145 4259 c-22 -5 -46 -18 -53 -29 -11 -19 -10 -20 36 -20 42 0 50
3 65 30 20 33 18 34 -48 19z"/>
<path d="M1325 4239 c4 -13 9 -25 10 -27 1 -1 51 -1 111 0 l109 3 -95 18 c-52
10 -106 21 -119 24 -21 5 -22 3 -16 -18z"/>
<path d="M3523 4233 c-24 -8 -43 -19 -43 -24 0 -5 61 -9 137 -9 75 0 134 2
132 4 -2 2 -29 14 -59 25 -64 24 -108 25 -167 4z"/>
<path d="M5585 4233 c-46 -11 -155 -45 -155 -49 0 -2 48 -4 106 -4 98 0 106 2
111 20 3 11 17 23 32 26 14 3 31 7 36 9 16 5 -107 3 -130 -2z"/>
<path d="M5769 4208 c8 -22 13 -23 147 -24 118 -2 130 -1 79 7 -33 5 -93 16
-134 24 -99 20 -102 20 -92 -7z"/>
<path d="M7936 4217 c-11 -8 -15 -19 -10 -30 5 -15 22 -17 143 -16 l136 0
-105 24 c-58 14 -114 27 -126 30 -11 2 -28 -1 -38 -8z"/>
<path d="M2328 4213 c23 -2 61 -2 85 0 23 2 4 4 -43 4 -47 0 -66 -2 -42 -4z"/>
<path d="M0 4130 c0 -46 3 -61 13 -58 6 3 44 15 82 28 39 12 74 26 78 30 7 6
-29 20 -155 56 -16 5 -18 -2 -18 -56z"/>
<path d="M1165 4179 c-126 -5 -175 -13 -175 -29 0 -3 -37 -15 -82 -24 -46 -10
-91 -22 -101 -28 -10 -5 -54 -8 -96 -7 -61 1 -85 -2 -110 -17 -17 -10 -30 -23
-28 -28 2 -5 64 -23 138 -39 l134 -30 153 21 c188 26 198 31 145 65 -20 13
-22 17 -8 13 117 -30 209 -38 394 -34 108 2 204 8 213 12 19 9 58 70 58 90 0
8 -12 19 -27 25 -32 12 -412 19 -608 10z"/>
<path d="M6735 4180 c-20 -5 9 -8 83 -9 73 -1 111 3 107 9 -7 11 -145 11 -190
0z"/>
<path d="M1990 4174 c-62 -21 -89 -39 -110 -75 -12 -22 -19 -46 -16 -54 3 -8
36 -28 73 -45 37 -18 95 -45 128 -60 33 -16 87 -32 120 -35 96 -10 289 10 384
40 116 37 354 151 349 167 -9 26 -338 82 -338 57 0 -12 -77 -12 -85 1 -4 6
-77 10 -186 10 -113 0 -179 -4 -179 -10 0 -5 -13 -10 -29 -10 -17 0 -33 5 -36
10 -6 10 -48 12 -75 4z"/>
<path d="M2855 4164 c33 -7 80 -13 105 -12 40 1 41 2 10 5 -19 3 -39 9 -44 14
-6 5 -37 9 -70 8 l-61 -1 60 -14z"/>
<path d="M3030 4160 c0 -12 44 -12 80 0 20 6 14 8 -27 9 -29 1 -53 -3 -53 -9z"/>
<path d="M3285 4162 c-3 -3 -48 -13 -101 -23 -53 -10 -104 -25 -113 -33 -9 -8
-36 -17 -61 -21 -25 -4 -101 -35 -170 -69 -95 -48 -125 -67 -125 -82 0 -16 -8
-19 -60 -22 -67 -2 -165 -28 -165 -42 0 -12 53 -40 75 -40 22 0 19 -21 -5 -27
-11 -3 -20 -9 -20 -13 0 -16 144 -134 178 -146 52 -18 196 -18 211 0 28 33
-20 66 -151 106 -64 20 -97 40 -63 40 8 0 59 -10 113 -21 94 -21 178 -22 240
-3 35 10 26 -10 -13 -29 -41 -19 -68 -57 -63 -89 2 -18 19 -29 88 -55 106 -40
161 -49 210 -34 43 13 155 73 196 106 25 20 27 25 14 40 -7 9 -41 31 -74 48
-58 30 -67 32 -173 32 -80 0 -113 3 -113 12 0 14 -28 23 -200 64 -133 31 -180
49 -127 49 24 0 87 -12 297 -55 118 -24 227 -38 253 -31 27 6 47 43 47 85 0
30 -14 38 -165 96 -38 15 -74 31 -79 36 -25 23 13 16 136 -26 147 -49 178 -53
256 -30 57 17 69 29 51 51 -19 23 -4 27 33 7 26 -14 56 -18 139 -18 124 0 139
7 139 69 0 72 35 65 -373 69 -142 2 -260 1 -262 -1z"/>
<path d="M4012 4152 c-18 -14 -25 -32 -29 -69 -5 -60 -4 -61 150 -142 94 -49
100 -51 178 -51 147 0 245 32 392 128 63 40 69 47 47 49 -58 7 -117 28 -150
53 -51 39 -114 53 -201 46 -88 -8 -131 -8 -264 -1 -87 5 -103 3 -123 -13z"/>
<path d="M5333 4149 c-7 -7 -30 -9 -60 -7 -78 8 -223 -19 -223 -41 0 -10 -85
-31 -125 -31 -42 0 -51 -13 -31 -42 23 -32 20 -57 -9 -70 -18 -8 -25 -19 -25
-40 0 -15 3 -28 8 -28 11 0 405 -49 487 -60 118 -17 391 -25 399 -12 10 16
-20 69 -51 89 -14 9 -67 25 -117 34 -195 36 -274 52 -356 75 -136 36 -106 33
345 -42 143 -23 379 -14 409 16 10 10 -50 40 -80 40 -10 0 -15 3 -12 6 3 3 53
-2 111 -10 123 -19 482 -22 492 -5 8 12 -14 39 -66 80 -29 23 -56 32 -130 44
-60 9 -95 11 -97 5 -5 -13 -109 -13 -117 0 -9 14 -308 13 -322 -1 -7 -7 -30
-9 -65 -4 -106 13 -352 17 -365 4z"/>
<path d="M385 4138 c-27 -5 -57 -15 -65 -22 -8 -8 -42 -16 -75 -18 -33 -2
-102 -17 -152 -34 l-93 -29 0 -62 c0 -60 1 -63 28 -68 15 -4 47 -11 71 -16 30
-7 47 -7 54 0 14 14 94 14 102 1 4 -7 16 -3 33 8 15 10 35 22 45 25 9 4 17 11
17 17 0 5 6 10 13 10 24 1 60 37 51 51 -5 8 -9 29 -9 47 0 24 4 32 16 30 9 -2
28 3 43 11 24 13 30 13 54 -1 16 -9 33 -13 40 -9 7 4 -11 19 -49 39 -33 18
-63 31 -67 31 -4 -1 -29 -6 -57 -11z"/>
<path d="M6620 4139 c-13 -5 -41 -7 -62 -4 -52 9 -50 -9 10 -67 50 -50 84 -66
222 -103 47 -13 128 -36 180 -50 52 -14 113 -31 135 -36 22 -6 94 -9 160 -7
101 4 128 8 170 29 44 21 54 33 84 91 18 36 30 71 27 77 -4 6 -25 15 -46 21
-42 11 -54 30 -20 30 11 0 20 3 20 8 0 4 -27 7 -60 7 -33 0 -60 -4 -60 -8 0
-11 -132 2 -144 14 -14 13 -160 11 -173 -2 -7 -7 -29 -9 -60 -4 -87 12 -357
15 -383 4z m807 -25 c-3 -3 -12 -4 -19 -1 -8 3 -5 6 6 6 11 1 17 -2 13 -5z"/>
<path d="M7540 4141 c0 -13 26 -21 65 -21 39 0 65 8 65 21 0 5 -29 9 -65 9
-36 0 -65 -4 -65 -9z"/>
<path d="M7923 4137 c-3 -5 -31 -7 -62 -6 -67 4 -200 -36 -182 -54 19 -19 12
-27 -19 -27 -27 0 -34 -6 -55 -52 -31 -66 -31 -76 0 -88 42 -16 28 -30 -28
-30 -29 0 -62 -6 -72 -14 -18 -13 -17 -14 6 -29 13 -9 47 -21 74 -27 76 -16
84 -20 80 -33 -3 -7 21 -23 60 -39 56 -24 76 -28 157 -27 l93 2 -67 15 c-38 8
-68 19 -68 24 0 4 6 8 13 8 24 0 132 -23 139 -29 6 -5 -8 -71 -27 -128 -4 -13
-14 -23 -22 -23 -20 0 -64 -31 -57 -41 3 -5 -1 -9 -9 -9 -8 0 -17 7 -21 15 -3
8 -16 15 -30 15 -31 0 -44 -46 -24 -87 17 -36 61 -40 66 -5 4 27 18 29 31 3 6
-11 39 -27 83 -40 40 -13 81 -27 90 -32 24 -12 155 -12 163 1 3 6 15 10 25 10
10 0 22 5 26 12 5 7 3 8 -6 3 -9 -5 -11 -4 -6 3 5 8 13 9 24 2 22 -12 122
-115 122 -126 0 -4 14 -23 32 -41 29 -30 31 -34 18 -58 -18 -34 -3 -45 60 -45
36 0 62 10 130 50 85 50 180 139 180 170 0 22 -25 55 -60 80 -34 24 -255 72
-415 90 -106 11 -125 19 -100 40 8 7 15 23 15 36 l0 24 38 -23 c53 -33 81 -43
229 -77 143 -33 217 -40 233 -24 6 6 13 33 17 61 5 50 5 51 -28 69 -111 57
-391 115 -462 96 -27 -8 -40 -6 -63 8 -18 11 -109 32 -234 54 -113 20 -225 43
-250 51 l-45 15 65 -6 c36 -3 128 -17 205 -29 206 -35 423 -60 432 -51 11 11
-52 61 -122 96 -33 17 -98 39 -145 49 -132 30 -253 62 -270 72 -24 14 26 11
95 -6 139 -34 289 -65 315 -65 32 0 80 19 80 31 0 5 -17 18 -37 29 -37 20 -37
21 -8 16 112 -21 196 -28 240 -21 l50 7 -35 29 c-85 72 -238 124 -253 87 -4
-10 -8 -10 -16 2 -8 11 -49 15 -196 20 -103 3 -189 1 -192 -3z m190 -364 c-7
-2 -21 -2 -30 0 -10 3 -4 5 12 5 17 0 24 -2 18 -5z m-89 -27 c-6 -16 -24 -23
-24 -8 0 10 22 33 27 28 2 -2 1 -11 -3 -20z m263 -42 c2 -13 1 -15 -4 -4 -3 8
-11 19 -17 23 -7 6 -6 7 4 4 8 -2 16 -12 17 -23z m-442 -195 c7 -33 3 -45 -14
-34 -13 8 -15 65 -2 65 5 0 12 -14 16 -31z"/>
<path d="M9038 4109 c-3 -22 -75 -69 -105 -69 -9 0 -13 -3 -9 -7 4 -4 36 -6
71 -5 59 3 65 1 80 -22 12 -17 15 -35 10 -56 -5 -24 -3 -31 12 -37 10 -4 25
-16 35 -28 15 -18 27 -20 136 -20 107 0 124 2 149 21 24 18 28 29 31 74 6 107
0 111 -188 135 -69 9 -143 20 -165 25 -54 13 -53 13 -57 -11z"/>
<path d="M9655 4094 c-5 -1 -23 -5 -40 -9 l-30 -7 25 -19 25 -19 -47 0 -48 0
0 -63 0 -63 48 -21 47 -21 -56 -1 c-31 -1 -64 -7 -75 -15 -18 -14 -17 -15 16
-29 44 -18 140 -41 146 -35 10 10 -1 305 -11 302z"/>
<path d="M8615 4055 c40 -33 132 -73 240 -104 61 -18 132 -39 159 -47 26 -8
50 -13 53 -10 7 6 -74 42 -115 51 -29 6 -33 10 -28 31 9 35 -25 51 -129 59
-49 4 -94 11 -100 15 -5 4 -30 11 -55 14 -43 7 -44 6 -25 -9z"/>
<path d="M1385 4004 c-140 -7 -322 -26 -414 -45 -90 -18 -133 -39 -213 -102
-30 -24 -21 -37 46 -68 108 -51 155 -55 371 -30 310 35 844 116 858 130 12 12
-3 19 -138 72 l-110 43 -165 1 c-91 1 -196 1 -235 -1z"/>
<path d="M503 3993 c-18 -2 -33 -8 -33 -14 0 -5 -4 -9 -9 -9 -6 0 -46 -24 -90
-54 l-80 -53 37 -7 c83 -14 258 -18 297 -7 46 12 119 76 111 96 -11 28 -158
59 -233 48z"/>
<path d="M3755 3990 c-99 -7 -224 -40 -255 -66 -8 -7 -26 -34 -39 -59 l-24
-45 22 -24 c12 -13 46 -35 76 -50 l54 -28 83 22 c374 96 478 126 478 139 0 14
-209 110 -251 114 -24 3 -89 1 -144 -3z"/>
<path d="M4723 3968 c-31 -22 -44 -48 -23 -48 6 0 10 -4 10 -10 0 -5 -24 -10
-52 -10 -125 0 -167 -40 -76 -71 57 -18 67 -27 48 -39 -8 -5 -12 -11 -10 -13
8 -7 190 -107 195 -107 3 0 5 18 5 39 0 33 -4 40 -24 45 -16 4 -25 15 -30 38
-6 28 -3 37 22 58 40 35 44 91 8 108 -14 6 -26 16 -26 22 0 15 -12 12 -47 -12z"/>
<path d="M6185 3973 c-84 -6 -299 -43 -322 -55 -26 -13 -27 -18 -12 -70 13
-47 30 -56 189 -98 169 -45 301 -47 510 -7 282 54 445 88 470 98 42 18 32 22
-310 107 -92 23 -127 26 -290 27 -102 1 -207 0 -235 -2z"/>
<path d="M8549 3960 c-87 -8 -142 -24 -161 -47 -11 -14 -5 -22 42 -65 67 -61
78 -67 210 -111 177 -59 167 -60 337 23 183 89 198 75 -182 174 -115 31 -153
35 -246 26z"/>
<path d="M0 3824 l0 -54 48 6 c71 9 73 10 66 41 -9 36 -4 32 -63 48 l-51 13 0
-54z"/>
<path d="M4874 3865 c46 -35 50 -101 6 -112 -17 -4 -20 -14 -20 -54 0 -40 4
-51 23 -61 28 -16 327 -25 327 -10 0 22 -78 57 -188 84 -63 15 -117 30 -120
33 -17 16 21 17 111 2 114 -19 175 -21 227 -8 74 19 90 21 90 12 0 -6 -16 -18
-35 -27 -20 -9 -38 -21 -41 -26 -8 -12 21 -54 50 -73 47 -31 456 -100 545 -92
61 5 261 83 304 117 l22 18 -25 11 c-14 6 -61 19 -105 30 -220 55 -470 81
-592 63 -50 -7 -65 -6 -77 6 -15 16 -86 30 -311 62 -77 12 -156 25 -175 30
-31 8 -33 8 -16 -5z"/>
<path d="M2235 3855 c-32 -9 -62 -11 -85 -6 -36 8 -189 -6 -307 -29 -62 -12
-226 -35 -518 -75 -213 -28 -275 -41 -289 -59 -6 -8 -40 -16 -76 -19 -95 -9
-166 -26 -190 -47 -15 -13 -45 -21 -98 -25 -158 -15 -441 -103 -468 -146 -12
-21 6 -26 376 -109 74 -17 162 -38 195 -46 79 -22 206 -21 332 1 l103 18 131
130 c96 95 127 132 117 138 -9 6 -8 9 7 9 13 0 54 33 102 80 l81 80 145 0 c94
0 148 -4 153 -11 3 -6 -6 -23 -20 -38 -23 -24 -25 -32 -16 -55 15 -40 12 -98
-6 -124 -19 -28 -54 -29 -61 -2 -3 11 -9 20 -14 20 -5 0 -9 9 -9 21 0 18 -7
14 -45 -23 -24 -24 -45 -47 -45 -52 0 -5 -7 -17 -16 -27 -12 -13 -13 -22 -5
-38 29 -54 -2 -161 -46 -161 -14 0 -23 6 -23 15 0 8 -4 15 -10 15 -5 0 -13 12
-16 26 l-7 26 -36 -36 -36 -35 -180 -4 c-193 -4 -330 -24 -396 -58 -61 -31
-199 -206 -199 -252 0 -13 24 -60 54 -103 29 -44 71 -115 94 -159 55 -111 74
-126 160 -133 98 -7 258 14 354 47 154 52 273 117 544 296 244 161 303 205
304 227 0 19 -159 73 -325 112 -39 9 -50 16 -50 31 0 33 33 29 192 -25 154
-51 215 -60 248 -36 27 19 36 203 12 240 -21 31 -123 56 -261 65 -79 5 -101 9
-101 21 0 11 16 15 70 17 129 4 149 10 217 64 69 56 88 50 39 -11 -17 -21 -31
-43 -31 -49 0 -19 63 -43 112 -43 40 0 63 8 126 45 42 24 78 52 80 61 3 16
-46 88 -78 113 -8 7 -32 13 -52 13 -36 0 -49 12 -28 25 6 3 10 20 10 36 0 25
-6 33 -35 45 -42 17 -113 17 -180 -1z m-185 -153 c0 -5 -14 -28 -31 -52 -30
-41 -33 -42 -45 -25 -19 25 -18 33 5 40 10 3 26 14 36 25 19 21 35 26 35 12z"/>
<path d="M4315 3840 c-11 -4 -47 -6 -80 -3 -43 4 -79 0 -130 -15 -38 -12 -131
-37 -205 -57 -208 -56 -262 -75 -267 -95 -3 -12 -18 -19 -46 -23 -30 -4 -48
-14 -67 -36 -15 -19 -34 -31 -49 -31 -34 0 -157 -68 -187 -103 -43 -51 -32
-66 86 -112 282 -111 272 -108 325 -102 53 6 260 70 281 88 7 6 10 17 8 24 -4
9 7 19 29 29 42 17 62 48 48 74 -5 10 -42 31 -80 46 -114 45 -106 63 10 25 89
-30 146 -29 170 2 10 13 24 40 30 59 6 19 18 48 26 64 22 43 34 13 20 -53 -14
-74 0 -84 105 -79 85 5 100 13 129 70 29 57 50 51 47 -14 -3 -53 -3 -53 37
-73 82 -40 196 -16 200 43 1 12 9 30 18 40 16 17 12 21 -75 75 -70 43 -101 57
-130 57 -33 0 -38 3 -38 23 0 26 -26 60 -57 76 -25 13 -128 14 -158 1z"/>
<path d="M7304 3831 c-17 -4 -36 -11 -43 -15 -7 -4 -34 -2 -62 4 -43 10 -62 9
-137 -8 -199 -46 -405 -90 -562 -118 -97 -18 -105 -21 -91 -38 17 -20 2 -26
-58 -26 -61 0 -104 -20 -95 -45 4 -9 -2 -16 -18 -19 -12 -2 -52 -9 -87 -16
-120 -22 -203 -78 -184 -125 10 -29 35 -34 793 -160 80 -14 171 -25 202 -25
58 0 179 25 301 61 70 22 89 35 63 45 -24 9 -19 32 6 36 29 4 35 34 12 59 -19
21 -73 39 -219 69 -121 26 -138 30 -132 37 3 2 66 -5 140 -16 144 -22 242 -27
251 -12 4 5 -7 38 -24 73 -51 107 -30 116 41 17 24 -32 58 -66 75 -74 35 -17
179 -21 203 -6 14 9 12 47 -4 84 -5 13 -4 18 6 17 29 -5 37 1 41 30 6 43 -4
53 -57 55 -37 2 -53 9 -78 33 -65 63 -203 104 -283 83z"/>
<path d="M285 3811 c-3 -6 -27 -13 -53 -17 -33 -5 -75 -25 -139 -67 -81 -52
-93 -64 -93 -88 0 -24 5 -30 38 -38 171 -46 258 -41 527 28 204 53 248 68 247
86 0 5 -42 25 -94 43 -94 33 -254 56 -359 51 -25 -2 -50 1 -56 4 -7 4 -14 3
-18 -2z"/>
<path d="M9360 3814 c0 -3 5 -14 10 -24 8 -14 7 -25 -2 -40 -9 -14 -10 -23 -2
-28 6 -4 37 -27 70 -52 33 -25 70 -51 84 -59 23 -13 23 -12 -4 18 -32 34 -25
41 14 14 13 -9 42 -20 64 -24 23 -3 49 -10 59 -14 16 -7 18 -2 15 60 -3 64 -5
70 -33 86 -72 43 -275 89 -275 63z"/>
<path d="M9145 3788 c-60 -27 -216 -107 -229 -119 -6 -5 -2 -17 9 -29 18 -19
18 -20 -4 -20 -29 0 -38 -27 -15 -46 14 -11 16 -17 6 -21 -51 -21 -56 -78 -11
-123 44 -43 67 -53 214 -89 72 -17 155 -38 185 -46 164 -43 315 -76 339 -73
l26 3 3 106 3 107 -33 12 c-40 16 -45 17 -60 19 -8 1 -5 7 6 16 19 15 19 15
-2 15 -12 0 -22 -5 -22 -11 0 -13 -63 -4 -140 22 -66 21 -42 23 55 5 39 -8 71
-13 72 -12 2 2 -8 9 -21 16 -15 7 -26 24 -28 38 -2 18 -26 44 -83 88 -44 35
-86 63 -92 63 -7 1 -13 5 -13 10 0 5 -20 12 -45 15 -52 8 -78 30 -70 57 8 23
11 23 -50 -3z"/>
<path d="M30 3751 c-14 -4 -26 -15 -28 -24 -5 -24 15 -21 50 8 30 25 24 29
-22 16z"/>
<path d="M1872 3590 c0 -14 2 -19 5 -12 2 6 2 18 0 25 -3 6 -5 1 -5 -13z"/>
<path d="M2665 3590 c-34 -11 -87 -38 -156 -82 -47 -29 -63 -54 -74 -118 -3
-19 -13 -65 -22 -103 -16 -63 -16 -68 0 -84 15 -15 23 -16 79 -4 34 7 96 23
138 36 41 12 116 35 165 50 50 15 119 39 155 54 36 16 96 41 134 57 61 26 126
79 126 103 0 18 -30 30 -150 59 -135 32 -339 49 -395 32z"/>
<path d="M4938 3583 c-9 -2 -19 -15 -22 -29 -4 -15 -14 -24 -25 -24 -24 0 -31
-19 -31 -85 0 -45 3 -55 25 -69 54 -35 54 -108 0 -122 -14 -3 -25 -12 -25 -18
0 -24 46 -56 81 -56 51 -1 80 -28 83 -78 3 -42 0 -46 -38 -42 -10 1 -29 -1
-41 -4 -21 -5 -23 -9 -15 -37 11 -39 -4 -66 -42 -74 l-28 -7 0 -104 c0 -79 3
-104 13 -104 27 0 67 -55 67 -91 0 -37 -23 -68 -51 -70 -8 0 9 -7 36 -15 28
-8 100 -30 160 -48 61 -19 191 -57 290 -86 99 -28 209 -60 245 -71 181 -54
424 -95 496 -84 46 7 84 36 84 65 0 22 -35 118 -74 203 -14 32 -26 61 -26 65
0 15 -76 80 -117 101 -23 11 -160 63 -305 115 -307 110 -405 148 -433 164 -19
11 -19 11 3 12 24 0 81 -14 197 -50 599 -182 635 -190 740 -171 70 13 195 59
227 83 35 26 16 46 -92 100 -52 27 -88 48 -80 48 9 0 81 -19 160 -42 l145 -43
267 0 c239 0 269 2 284 17 14 14 15 22 6 42 -17 38 -141 165 -186 190 -53 30
-176 58 -581 131 -71 13 -166 30 -211 38 -192 36 -270 31 -434 -31 -58 -21
-76 -33 -78 -49 -4 -28 -14 -31 -94 -25 -60 4 -68 7 -68 25 0 20 0 20 -23 -1
-90 -85 -346 -79 -444 11 -52 47 -35 145 38 223 54 57 192 94 247 65 9 -5 32
-15 49 -21 69 -26 133 -123 133 -202 0 -16 4 -28 8 -28 17 0 281 89 311 105
35 17 54 47 45 68 -8 23 -113 43 -384 76 -233 28 -456 44 -492 34z"/>
<path d="M0 3508 c0 -32 4 -58 10 -58 40 0 157 67 143 81 -5 5 -41 15 -81 22
l-72 14 0 -59z"/>
<path d="M4777 3511 c3 -10 0 -22 -6 -25 -26 -16 -1 -109 28 -104 12 2 17 17
19 52 4 67 -4 96 -27 96 -14 0 -18 -5 -14 -19z"/>
<path d="M4203 3489 c-36 -11 -83 -70 -83 -106 0 -27 23 -41 110 -63 36 -10
119 -33 185 -53 250 -73 313 -88 351 -85 34 3 39 6 45 35 6 29 4 33 -20 38
-19 4 -31 16 -39 38 -19 52 -100 147 -140 164 -20 9 -64 22 -97 29 -68 15
-264 17 -312 3z"/>
<path d="M9610 3480 c0 -5 7 -10 16 -10 8 0 12 5 9 10 -3 6 -10 10 -16 10 -5
0 -9 -4 -9 -10z"/>
<path d="M7492 3470 c-28 -12 -34 -27 -24 -65 13 -46 59 -70 182 -95 92 -19
110 -26 110 -42 0 -23 -18 -23 -107 -2 -117 28 -219 23 -373 -20 -157 -42
-187 -53 -193 -71 -11 -27 132 -198 208 -249 28 -19 122 -66 210 -106 88 -39
240 -112 339 -161 228 -113 302 -139 399 -139 158 0 236 29 273 101 28 56 31
109 10 219 -8 41 -17 106 -21 143 -7 68 -28 107 -58 107 -14 0 -42 -60 -52
-113 l-7 -37 -173 0 c-160 0 -173 1 -178 18 -2 11 -17 22 -36 25 -25 5 -31 11
-31 32 0 15 -17 49 -40 79 -38 50 -52 96 -30 96 6 0 10 7 10 15 0 9 -9 15 -25
15 -16 0 -25 6 -25 15 0 9 -7 18 -15 21 -8 4 -15 16 -15 28 0 18 3 16 20 -11
22 -37 40 -43 40 -13 0 23 -42 70 -62 70 -8 0 -24 -7 -36 -16 -22 -15 -24 -14
-57 23 -19 21 -34 43 -35 49 0 6 -9 19 -20 29 -14 12 -18 25 -14 41 6 24 5 24
-72 23 -44 0 -89 -4 -102 -9z"/>
<path d="M7932 3398 c-36 -36 11 -128 57 -113 17 5 21 15 21 46 0 58 -47 98
-78 67z m58 -65 c0 -7 -6 -13 -14 -13 -15 0 -29 38 -20 52 7 11 33 -21 34 -39z"/>
<path d="M0 3171 l0 -221 238 0 c244 0 333 11 386 45 28 19 106 116 130 163 9
18 14 41 11 52 -7 23 -6 22 -320 106 -202 54 -269 68 -347 72 l-98 4 0 -221z"/>
<path d="M1661 3355 c0 -35 1 -37 10 -17 6 15 5 30 -1 40 -7 13 -9 8 -9 -23z"/>
<path d="M3135 3361 c-89 -32 -164 -72 -184 -97 -16 -20 -28 -24 -70 -24 -56
0 -333 -69 -391 -98 -19 -9 -41 -29 -48 -44 -10 -22 -18 -26 -55 -26 -23 1
-58 -7 -77 -17 -42 -21 -267 -170 -280 -186 -3 -3 -33 -24 -66 -47 -34 -23
-79 -57 -99 -77 -34 -32 -37 -38 -31 -74 l6 -39 -88 -4 c-78 -3 -96 -7 -173
-45 -54 -27 -99 -57 -122 -83 -32 -34 -37 -47 -37 -89 0 -39 6 -56 30 -86 17
-21 29 -43 27 -49 -2 -6 -23 -22 -48 -36 -76 -45 -87 -78 -100 -296 -6 -104
-12 -247 -13 -317 l-1 -128 32 -29 c37 -33 82 -48 169 -57 78 -7 105 0 149 39
48 41 79 105 99 202 31 150 24 173 -98 354 -68 101 -94 162 -67 162 16 0 125
-78 181 -130 30 -28 68 -58 84 -66 44 -24 106 -11 195 40 109 62 121 68 121
58 0 -5 -55 -65 -123 -133 -106 -108 -128 -135 -164 -209 -100 -206 -130 -321
-101 -390 24 -55 196 -279 228 -295 43 -22 71 -19 124 15 83 53 291 272 463
487 90 113 133 194 133 252 0 39 -84 289 -108 320 -32 44 -78 64 -156 69 -65
4 -78 1 -140 -27 -37 -18 -71 -30 -74 -27 -3 3 7 29 22 56 21 38 25 56 19 74
-10 29 -73 80 -254 209 -74 53 -144 106 -154 117 -18 19 -18 20 2 20 44 0 250
-102 449 -222 105 -63 211 -108 254 -108 69 0 142 114 210 326 34 105 42 93
-224 344 -95 89 -36 75 114 -28 36 -25 83 -59 105 -76 102 -80 128 -83 241
-27 125 63 140 84 109 158 -8 20 -14 38 -11 40 2 2 23 -12 46 -32 70 -59 75
-60 203 -58 177 3 200 22 212 173 7 81 6 86 -16 106 -37 33 -358 175 -393 174
-6 -1 -33 -9 -61 -19z"/>
<path d="M8905 3305 c-26 -33 -28 -75 -4 -75 5 0 9 -6 9 -14 0 -11 -12 -15
-48 -14 -38 1 -64 -8 -132 -43 -47 -24 -86 -51 -88 -60 -1 -8 9 -21 23 -29 35
-19 31 -30 -9 -30 -56 0 -59 -11 -30 -164 30 -158 45 -186 124 -234 30 -18 57
-37 58 -42 2 -6 -23 -10 -61 -10 -59 0 -68 -3 -86 -26 -12 -15 -21 -34 -21
-43 0 -31 40 -81 98 -124 54 -39 95 -61 265 -142 53 -25 58 -30 52 -52 -5 -20
2 -32 34 -63 35 -34 560 -390 575 -390 3 0 6 45 6 101 l0 100 -87 41 c-170 78
-233 109 -239 120 -11 17 43 4 185 -47 70 -25 130 -45 134 -45 4 0 7 62 7 138
l0 137 -132 47 c-73 26 -238 83 -367 127 -227 78 -303 112 -216 97 22 -4 63
-14 90 -21 146 -41 274 -79 395 -116 74 -22 156 -47 183 -54 l47 -13 0 148 c0
106 -4 150 -12 157 -16 12 -274 115 -508 203 -155 58 -215 82 -224 91 -25 23
53 0 399 -119 217 -74 308 -102 333 -102 10 0 12 18 10 71 l-3 72 -80 40 c-93
47 -88 59 8 22 37 -14 70 -25 72 -25 3 0 5 51 5 113 l0 114 -37 17 c-36 16
-97 34 -258 76 -126 33 -299 79 -335 90 -19 5 -52 10 -72 10 -30 0 -42 -6 -63
-35z"/>
<path d="M4001 3299 c-25 -5 -93 -25 -151 -44 -137 -46 -154 -62 -169 -168
-22 -151 -26 -140 141 -360 153 -204 167 -209 390 -162 125 26 219 99 408 319
77 88 149 170 160 182 26 27 25 40 -3 58 -29 20 -679 186 -717 185 -8 -1 -35
-5 -59 -10z"/>
<path d="M4772 2939 c3 -8 -16 -39 -42 -69 -72 -84 -110 -141 -110 -163 0 -12
12 -33 26 -48 35 -36 24 -53 -30 -45 -104 16 -236 -69 -236 -151 0 -49 40
-108 103 -151 72 -50 75 -58 39 -92 -18 -16 -32 -35 -32 -42 0 -31 132 -265
221 -390 l26 -37 21 22 c35 35 45 12 43 -99 -1 -54 -4 -100 -6 -103 -3 -2 -11
2 -20 9 -9 7 -18 10 -22 7 -3 -4 6 -12 20 -18 l27 -12 2 -166 3 -166 35 0 35
0 3 132 c2 123 4 132 23 138 12 4 27 1 37 -8 40 -34 104 -58 205 -77 236 -44
332 -15 307 94 -13 61 -114 219 -174 273 -30 28 -99 76 -153 108 -54 32 -133
80 -176 106 -43 27 -80 49 -82 49 -2 0 -6 -42 -7 -92 -3 -88 -4 -93 -25 -96
-23 -3 -23 -2 -23 110 0 78 -4 118 -12 126 -10 10 -10 15 2 22 12 8 11 10 -6
10 -11 0 -31 11 -44 25 -19 20 -22 31 -17 72 4 39 12 54 41 79 l36 31 0 117
c0 114 0 117 -24 126 -42 16 -57 48 -44 98 8 32 18 46 37 53 14 6 29 16 33 22
11 17 10 197 -1 197 -5 0 -17 3 -27 7 -12 4 -15 2 -12 -8z"/>
<path d="M140 2883 c-30 -1 -74 -5 -98 -9 l-42 -5 0 -315 0 -315 21 6 c12 4
49 15 83 26 170 52 235 72 401 127 99 33 201 69 228 82 62 29 100 74 92 109
-16 68 -179 261 -241 287 -32 13 -269 17 -444 7z"/>
<path d="M3407 2869 c-132 -17 -205 -38 -293 -82 -159 -80 -163 -85 -255 -274
-45 -93 -88 -196 -96 -230 -15 -59 -15 -67 7 -159 28 -122 55 -202 77 -226 22
-25 66 -23 116 6 23 13 168 106 322 208 154 101 327 213 385 248 195 118 214
152 137 256 -82 110 -199 236 -233 250 -37 15 -65 16 -167 3z"/>
<path d="M6785 2839 c-164 -10 -381 -73 -480 -138 -55 -37 -57 -73 -10 -238
67 -233 73 -239 452 -462 208 -122 243 -136 349 -136 83 0 95 3 155 34 186 97
727 469 764 524 21 32 6 67 -44 101 -86 59 -589 279 -716 312 -55 15 -268 16
-470 3z"/>
<path d="M4860 2425 c0 -100 1 -106 23 -114 38 -15 60 -48 65 -99 4 -45 2 -51
-26 -71 -17 -11 -36 -21 -44 -21 -17 0 26 -23 137 -72 50 -22 104 -46 120 -54
62 -28 149 -54 186 -54 49 0 105 22 193 77 110 67 121 58 52 -46 -24 -36 -51
-82 -61 -100 -23 -46 -21 -131 5 -206 11 -32 20 -65 20 -74 0 -28 73 -158 110
-197 49 -53 116 -92 270 -162 429 -192 495 -215 610 -216 96 -1 126 10 185 72
45 45 132 185 193 307 85 171 100 249 61 315 -44 74 -56 81 -559 355 -59 32
-180 73 -245 84 -222 36 -314 33 -428 -15 -32 -14 -62 -22 -67 -19 -6 4 -10
23 -10 44 0 74 -26 89 -365 210 -137 49 -288 105 -335 125 -46 20 -86 36 -87
36 -2 0 -3 -47 -3 -105z"/>
<path d="M1133 2455 c-33 -7 -87 -27 -120 -44 -70 -37 -86 -38 -101 -6 -21 46
-79 35 -427 -85 -99 -33 -249 -84 -332 -111 l-153 -51 0 -384 0 -384 216 220
c119 121 221 220 226 220 19 0 -135 -192 -364 -455 l-78 -89 0 -130 0 -129 52
6 c73 9 174 45 233 83 66 42 126 100 275 264 68 74 143 154 168 177 80 75 65
35 -36 -97 -246 -318 -276 -364 -288 -436 -7 -47 7 -100 37 -138 17 -21 29
-26 65 -26 81 0 144 45 373 266 250 242 261 262 332 663 37 205 34 228 -29
216 -20 -4 -41 -7 -46 -8 -24 -5 -12 27 34 87 28 37 66 93 85 124 39 67 70
179 61 217 -11 45 -69 55 -183 30z"/>
<path d="M4115 2436 c-16 -8 -43 -28 -59 -45 -36 -38 -46 -38 -76 -6 -27 29
-55 31 -107 10 -27 -11 -532 -343 -677 -445 -271 -190 -293 -213 -311 -323 -6
-39 -19 -49 -78 -62 -58 -12 -176 -152 -193 -228 -13 -62 -32 -84 -96 -114
-89 -42 -281 -232 -392 -388 -74 -103 -86 -95 133 -95 164 0 191 2 191 15 0
25 79 103 117 116 85 28 172 -13 190 -90 l9 -36 327 -3 327 -2 17 36 c17 35
17 37 -6 77 -13 23 -57 83 -96 132 -74 92 -155 207 -155 219 0 15 40 -17 150
-119 158 -146 200 -166 267 -125 59 35 93 125 188 495 48 185 93 333 105 340
6 4 8 -6 5 -22 -2 -15 -9 -68 -15 -118 -6 -49 -21 -144 -34 -210 -57 -289 -61
-319 -42 -368 19 -51 46 -67 112 -67 112 0 196 43 240 124 15 27 46 126 71
223 74 295 98 298 64 10 -21 -185 -25 -272 -12 -317 l7 -25 16 30 c9 17 34 46
55 66 44 42 161 119 180 119 8 0 24 6 36 14 12 8 39 17 59 20 20 4 47 18 60
31 13 14 29 25 36 25 7 0 15 7 18 15 4 8 12 15 20 15 19 0 18 16 -5 82 -25 72
-231 472 -266 516 -26 32 -29 33 -75 27 -58 -8 -61 -1 -48 102 17 128 -39 315
-102 348 -36 18 -115 19 -155 1z"/>
<path d="M8423 2414 c-24 -12 -33 -23 -33 -41 0 -36 -24 -38 -92 -8 -101 46
-106 43 -344 -150 -160 -129 -284 -222 -473 -353 -67 -46 -130 -95 -141 -109
-33 -42 -24 -80 33 -140 37 -39 31 -63 -15 -63 -60 -1 -111 -18 -141 -49 -24
-24 -31 -40 -35 -84 -4 -55 -3 -61 41 -142 15 -26 15 -31 1 -46 -8 -9 -39 -21
-70 -27 -30 -6 -70 -24 -90 -38 -41 -32 -154 -197 -185 -272 l-21 -51 30 -26
c17 -14 36 -41 42 -60 l12 -35 324 0 c320 0 324 0 324 20 0 58 70 120 134 120
64 0 175 -77 176 -122 0 -17 22 -18 319 -18 l319 0 6 32 c7 38 52 88 78 88 10
0 18 5 18 10 0 13 54 13 78 1 9 -5 32 -15 50 -21 18 -7 52 -35 76 -61 l44 -49
189 0 188 1 -30 25 c-60 49 -185 115 -425 224 -318 144 -437 203 -425 207 6 2
62 -15 125 -36 111 -38 150 -53 325 -121 255 -100 359 -124 398 -91 43 35 13
101 -184 401 -236 358 -285 437 -276 446 9 9 122 -132 359 -446 210 -279 301
-350 447 -350 94 0 91 -3 91 120 l0 107 -101 144 c-106 151 -135 199 -121 199
10 0 95 -88 166 -173 l56 -67 0 175 0 175 -92 68 c-155 114 -315 220 -353 232
-27 9 -39 9 -50 0 -23 -19 -51 -3 -102 58 -81 98 -125 141 -228 226 -203 167
-327 217 -422 170z"/>
<path d="M1184 1270 c-66 -33 -128 -85 -319 -267 -94 -90 -124 -123 -109 -123
36 0 73 -38 80 -80 l6 -39 227 -5 c124 -3 265 -8 313 -11 l87 -6 15 30 c38 72
101 111 183 111 78 0 118 -28 130 -93 l9 -42 57 -3 58 -3 19 43 c23 51 26 137
6 177 -13 25 -124 126 -258 234 -59 49 -123 73 -240 92 -143 23 -195 20 -264
-15z"/>
<path d="M5055 1270 c17 -4 44 -15 60 -24 17 -9 35 -16 41 -16 6 0 28 -13 50
-30 21 -16 43 -30 47 -30 9 0 107 -96 107 -104 0 -2 15 -27 34 -54 18 -28 37
-67 41 -89 4 -21 11 -41 17 -44 5 -3 12 -37 16 -75 l7 -69 103 -3 c96 -3 102
-2 102 17 0 37 23 71 66 96 52 30 72 31 130 5 32 -15 53 -34 75 -70 l31 -50
304 0 304 0 -11 27 c-26 68 -62 110 -133 151 -49 29 -106 51 -371 140 -115 39
-248 85 -295 102 -171 61 -285 89 -455 109 -169 21 -333 27 -270 11z"/>
<path d="M0 831 l0 -71 145 0 c80 0 145 2 145 4 0 12 -89 95 -115 108 -16 9
-63 19 -102 23 l-73 7 0 -71z"/>
<path d="M3865 866 c-74 -12 -138 -35 -148 -53 -2 -5 0 -22 4 -39 l9 -31 231
-8 c126 -4 232 -6 233 -4 2 2 6 28 8 57 l5 52 -65 20 c-73 23 -156 24 -277 6z"/>
<path d="M0 349 l0 -350 51 3 c57 3 45 -16 130 198 22 58 55 139 71 180 69
172 92 256 82 295 l-6 25 -164 0 -164 0 0 -351z"/>
<path d="M782 670 c-7 -11 -19 -20 -27 -20 -8 0 -18 -6 -22 -14 -10 -17 -105
-46 -153 -46 -20 0 -41 5 -48 12 -8 8 -15 8 -21 2 -10 -9 -102 -191 -164 -324
-88 -189 -127 -273 -127 -276 0 -2 211 -4 468 -4 l469 0 59 42 c32 23 87 64
122 90 34 26 92 71 130 100 201 154 285 235 350 338 19 30 43 67 54 82 10 15
18 30 18 33 0 3 -26 5 -58 5 -53 0 -61 -3 -92 -35 -45 -47 -101 -67 -175 -63
l-60 3 -25 47 -25 48 -330 0 c-319 0 -331 -1 -343 -20z"/>
<path d="M2013 658 c-60 -114 -83 -175 -83 -229 0 -71 14 -93 186 -284 l129
-145 405 0 405 0 66 50 c95 71 123 115 127 204 5 80 10 89 63 117 47 24 73 60
104 146 28 76 30 101 13 138 l-11 25 -136 0 c-75 0 -227 3 -338 7 -180 5 -203
4 -203 -9 0 -28 -66 -76 -115 -83 -25 -4 -45 -11 -45 -16 0 -5 -9 -9 -20 -9
-11 0 -20 4 -20 9 0 5 -14 11 -30 15 -23 4 -35 16 -52 51 l-22 45 -203 0 -202
0 -18 -32z"/>
<path d="M3710 665 c0 -8 -4 -15 -10 -15 -5 0 -10 -6 -10 -14 0 -15 -57 -46
-84 -46 -9 0 -16 -4 -16 -10 0 -5 -17 -11 -37 -11 -24 -1 -29 -3 -15 -6 12 -2
22 -7 22 -10 0 -3 -16 -57 -36 -121 -60 -193 -48 -261 64 -352 107 -87 53 -80
596 -80 l483 0 -22 83 c-35 128 -39 135 -83 147 -22 5 -51 19 -65 30 -14 11
-30 20 -36 20 -17 0 -171 157 -171 174 0 8 -6 21 -13 28 -7 7 -21 33 -31 58
-10 25 -22 52 -26 60 -4 9 -11 30 -15 48 l-7 32 -244 0 c-210 0 -244 -2 -244
-15z"/>
<path d="M5470 657 c0 -13 -4 -27 -8 -32 -5 -6 -17 -38 -28 -72 -10 -35 -22
-63 -26 -63 -4 0 -17 -18 -28 -41 -22 -42 -134 -159 -152 -159 -6 0 -25 -11
-42 -23 -17 -13 -49 -30 -71 -37 -22 -7 -44 -16 -50 -20 -22 -16 -118 -32
-209 -33 -63 -1 -95 -6 -92 -13 2 -5 10 -45 16 -87 l13 -77 661 0 661 0 175
152 c211 185 241 213 274 270 28 48 44 137 38 206 l-4 42 -309 0 -309 0 -19
-39 c-38 -74 -133 -91 -217 -38 -23 14 -47 39 -54 56 l-12 31 -104 0 c-102 0
-104 0 -104 -23z"/>
<path d="M6947 663 c-4 -3 -7 -14 -7 -24 0 -9 -14 -31 -30 -49 -30 -32 -32
-33 -97 -27 -37 3 -69 10 -71 16 -2 6 -9 11 -16 11 -7 0 -25 11 -40 25 -14 13
-26 21 -26 16 0 -7 18 -24 62 -59 9 -8 47 -17 84 -20 65 -7 68 -8 78 -40 6
-18 30 -54 52 -80 46 -53 152 -111 295 -163 136 -49 499 -176 641 -224 l132
-45 737 0 738 0 30 37 c52 63 36 119 -63 212 -42 41 -46 67 -11 83 56 25 40
105 -51 245 l-54 83 -214 0 -215 0 -20 -44 c-10 -24 -29 -50 -42 -56 -33 -18
-126 -4 -171 25 -21 14 -42 25 -47 25 -5 0 -15 10 -23 23 -15 22 -16 22 -345
25 l-329 3 -12 -34 c-19 -54 -44 -70 -105 -69 -52 0 -138 35 -162 65 -36 46
-43 47 -376 47 -173 0 -319 -3 -322 -7z"/>
<path d="M9530 641 c0 -5 7 -11 15 -15 8 -3 15 -13 15 -22 0 -9 19 -51 42 -93
70 -128 68 -128 68 -28 0 68 -3 87 -14 87 -8 0 -16 3 -18 8 -3 8 -95 72 -103
72 -3 0 -5 -4 -5 -9z"/>
<path d="M3475 580 c3 -5 10 -10 16 -10 5 0 9 5 9 10 0 6 -7 10 -16 10 -8 0
-12 -4 -9 -10z"/>
<path d="M1728 255 c-45 -17 -87 -46 -292 -205 l-58 -45 327 -3 c181 -1 330 0
332 2 5 5 -147 204 -179 234 -32 29 -82 36 -130 17z"/>
<path d="M6810 241 c-61 -13 -152 -69 -250 -154 l-95 -82 288 -3 c158 -1 416
-1 575 0 l287 3 -85 32 c-47 18 -150 57 -230 88 -272 105 -399 136 -490 116z"/>
</g>
</svg>
